<svg width="96" height="97" viewBox="0 0 96 97" fill="none" xmlns="http://www.w3.org/2000/svg">
<path fill-rule="evenodd" clip-rule="evenodd" d="M79.8891 64.6085L87.8523 33.686C88.3719 31.6659 87.8944 29.5187 86.5672 27.9154C85.4718 26.5946 83.9058 25.7823 82.2416 25.627C82.4803 25.8106 82.705 26.0366 82.9157 26.2838C83.7443 27.2585 84.1656 28.4452 84.1656 29.8083C84.1656 31.3199 83.6109 32.6619 82.5575 33.6931C81.5183 34.7102 80.177 35.247 78.6813 35.247C77.0732 35.247 75.6758 34.5548 74.6435 33.241C74.5101 33.3964 74.3696 33.5518 74.2222 33.6931C73.1829 34.7102 71.8416 35.247 70.3459 35.247C68.7448 35.247 67.3474 34.5477 66.3081 33.234C65.9085 32.7307 65.2026 32.5153 64.5198 32.3069C63.583 32.0209 62.6896 31.7482 62.6896 30.7637C62.6896 30.4673 62.5863 29.9791 62.4765 29.4599C62.3193 28.717 62.1488 27.9106 62.248 27.5115L19.2593 30.1332C17.5318 30.2604 15.9237 31.0868 14.8072 32.4217C13.6907 33.7566 13.1499 35.4871 13.3255 37.2246L15.7692 62.1929C16.0852 65.4419 18.7537 67.9423 21.9909 68.027L22.0819 68.0298L23.7873 77.4564L31.3341 68.2879L32.3768 68.3166L73.4848 69.4538C76.4763 69.5386 79.1377 67.5256 79.8891 64.6085Z" fill="#390000"/>
<path d="M71.5908 27.9013C71.5908 28.8548 71.2608 29.653 70.5936 30.3028C69.9336 30.9455 69.119 31.2704 68.1499 31.2704C67.1808 31.2704 66.3733 30.8608 65.7202 30.0344C65.0672 29.2151 64.7441 28.1909 64.7441 26.969C64.7441 26.1779 64.8776 25.4292 65.1584 24.7088L67.7988 24.5181C67.6794 24.7865 67.5881 25.069 67.5109 25.3515C68.0516 25.0054 68.5361 24.8288 68.9785 24.8288C69.7088 24.8288 70.3268 25.1255 70.8324 25.7188C71.338 26.3121 71.5908 27.0396 71.5908 27.9013Z" fill="#03C0C1"/>
<path d="M79.9117 27.9013C79.9117 28.8548 79.5817 29.6529 78.9216 30.3027C78.2685 30.9455 77.4539 31.2704 76.4849 31.2704C75.5158 31.2704 74.6942 30.8607 74.0482 30.0343C73.4021 29.215 73.0791 28.1908 73.0791 26.9689C73.0791 25.9448 73.3108 24.9842 73.7743 24.0801L76.4287 23.8823C76.1689 24.3485 75.9723 24.8358 75.8388 25.3515C76.3725 25.0054 76.8641 24.8288 77.3135 24.8288C78.0368 24.8288 78.6547 25.1254 79.1533 25.7187C79.6589 26.312 79.9117 27.0396 79.9117 27.9013Z" fill="#03C0C1"/>
<path fill-rule="evenodd" clip-rule="evenodd" d="M77.6928 62.7015L85.656 31.779C86.1757 29.759 85.6981 27.6118 84.3709 26.0084C83.2755 24.6876 81.7095 23.8754 80.0453 23.72C80.284 23.9036 80.5087 24.1296 80.7194 24.3768C81.548 25.3516 81.9694 26.5382 81.9694 27.9014C81.9694 29.4129 81.4146 30.7549 80.3613 31.7861C79.322 32.8032 77.9807 33.34 76.485 33.34C74.8769 33.34 73.4795 32.6478 72.4472 31.334C72.3138 31.4894 72.1734 31.6448 72.0259 31.7861C70.9866 32.8032 69.6454 33.34 68.1496 33.34C66.5486 33.34 65.1511 32.6407 64.1119 31.327C63.1638 30.1333 62.6863 28.6712 62.6863 26.969C62.6863 26.2486 62.7776 25.5493 62.9462 24.8713L17.063 28.2263C15.3355 28.3534 13.7274 29.1798 12.6109 30.5147C11.4944 31.8497 10.9537 33.5801 11.1292 35.3177L13.5729 60.2859C13.8889 63.535 16.5574 66.0353 19.7946 66.1201L20.9532 66.1552L22.6528 75.5492L30.1758 66.4095L30.1805 66.4097L71.2886 67.5468C74.28 67.6316 76.9414 65.6186 77.6928 62.7015Z" fill="#03C0C1"/>
<path d="M79.1537 25.7189C78.6552 25.1256 78.0372 24.829 77.3139 24.829C76.8645 24.829 76.3729 25.0055 75.8392 25.3516C75.9727 24.836 76.1693 24.3487 76.4291 23.8825C77.1032 22.6465 78.2198 21.587 79.7576 20.697V19.9836C77.9178 20.1885 76.3448 20.9725 75.0387 22.3357C74.512 22.8937 74.0907 23.4728 73.7747 24.0803C73.3112 24.9844 73.0795 25.9449 73.0795 26.9691C73.0795 28.191 73.4025 29.2152 74.0486 30.0345C74.6946 30.8609 75.5092 31.2706 76.4853 31.2706C77.4614 31.2706 78.2689 30.9457 78.922 30.3029C79.5821 29.6531 79.9121 28.855 79.9121 27.9014C79.9121 27.0397 79.6593 26.3122 79.1537 25.7189ZM77.4895 28.8196C77.2156 29.088 76.9136 29.2011 76.4853 29.2011C76.1974 29.2011 75.9586 29.1234 75.6637 28.749C75.3617 28.3747 75.1932 27.8944 75.1511 27.3081C75.7409 27.52 76.4151 27.4494 76.9558 27.0892C77.1945 26.9408 77.3209 26.8985 77.3209 26.8985C77.3982 26.8985 77.4544 26.8985 77.5878 27.0609C77.7142 27.2092 77.8546 27.4353 77.8546 27.9014C77.8546 28.297 77.7493 28.5654 77.4895 28.8196ZM68.9785 24.829C68.5361 24.829 68.0516 25.0055 67.5109 25.3516C67.5881 25.0691 67.6794 24.7866 67.7988 24.5182C68.4238 23.0067 69.6386 21.7353 71.4293 20.697V19.9836C69.5895 20.1885 68.0165 20.9725 66.7104 22.3357C66.0011 23.0773 65.4815 23.8684 65.1584 24.7089C64.8776 25.4293 64.7441 26.178 64.7441 26.9691C64.7441 28.191 65.0672 29.2152 65.7202 30.0345C66.3733 30.8609 67.1808 31.2706 68.1499 31.2706C69.119 31.2706 69.9336 30.9457 70.5936 30.3029C71.2608 29.6531 71.5908 28.855 71.5908 27.9014C71.5908 27.0397 71.338 26.3122 70.8324 25.7189C70.3268 25.1256 69.7088 24.829 68.9785 24.829ZM69.1611 28.8126C68.8872 29.081 68.5853 29.2011 68.1499 29.2011C67.862 29.2011 67.6303 29.1234 67.3283 28.749C67.0264 28.3676 66.8578 27.8944 66.8157 27.3011C67.4126 27.52 68.0867 27.4494 68.6345 27.0892C68.8592 26.9408 68.9856 26.9055 68.9856 26.8985C69.0698 26.8985 69.133 26.8985 69.2664 27.0609C69.3928 27.2092 69.5333 27.4353 69.5333 27.9014C69.5333 28.297 69.428 28.5583 69.1611 28.8126Z" fill="white"/>
<g filter="url(#filter0_d_1756_1197)">
<path d="M70.8324 25.7189C70.3268 25.1256 69.7088 24.829 68.9785 24.829C68.5361 24.829 68.0516 25.0055 67.5109 25.3516C67.5881 25.0691 67.6794 24.7866 67.7988 24.5182C68.4238 23.0067 69.6386 21.7353 71.4293 20.697V19.9836C69.5895 20.1885 68.0165 20.9725 66.7104 22.3357C66.0011 23.0773 65.4815 23.8684 65.1584 24.7089C64.8776 25.4293 64.7441 26.178 64.7441 26.9691C64.7441 28.191 65.0672 29.2152 65.7202 30.0345C66.3733 30.8609 67.1808 31.2706 68.1499 31.2706C69.119 31.2706 69.9336 30.9457 70.5936 30.3029C71.2608 29.6531 71.5908 28.855 71.5908 27.9014C71.5908 27.0397 71.338 26.3122 70.8324 25.7189ZM79.1537 25.7189C78.6552 25.1256 78.0372 24.829 77.3139 24.829C76.8645 24.829 76.3729 25.0055 75.8392 25.3516C75.9727 24.836 76.1693 24.3487 76.4291 23.8825C77.1032 22.6465 78.2198 21.587 79.7576 20.697V19.9836C77.9178 20.1885 76.3448 20.9725 75.0387 22.3357C74.512 22.8937 74.0907 23.4728 73.7747 24.0803C73.3112 24.9844 73.0795 25.9449 73.0795 26.9691C73.0795 28.191 73.4025 29.2152 74.0486 30.0345C74.6946 30.8609 75.5092 31.2706 76.4853 31.2706C77.4614 31.2706 78.2689 30.9457 78.922 30.3029C79.5821 29.6531 79.9121 28.855 79.9121 27.9014C79.9121 27.0397 79.6593 26.3122 79.1537 25.7189Z" fill="#FFB636"/>
</g>
<path d="M8.09089 33.9201C8.09089 33.9201 8.09375 33.8564 8.09357 33.7373C8.09948 33.6202 8.09014 33.4437 8.12447 33.2236C8.16872 32.7755 8.27227 32.1459 8.52359 31.418C8.7688 30.6882 9.15378 29.8642 9.70903 29.0648C10.2582 28.2635 10.9696 27.491 11.7906 26.8526C12.1874 26.5562 12.6446 26.2488 13.087 26.0113C13.5353 25.7656 13.9967 25.5752 14.4484 25.4054C15.3541 25.0801 16.2426 24.9194 17.0018 24.8731C17.7611 24.8269 18.3929 24.8889 18.825 24.9678C19.257 25.0467 19.4969 25.1177 19.4969 25.1177C19.4969 25.1177 19.2553 25.172 18.8326 25.2696C18.4179 25.3629 17.8304 25.5159 17.1633 25.7315C16.4923 25.9594 15.7377 26.252 14.9645 26.6372C14.5778 26.8247 14.2001 27.0592 13.8142 27.2878C13.4326 27.5347 13.0812 27.7711 12.7025 28.0631C11.9871 28.6201 11.3215 29.2443 10.7453 29.894C10.4684 30.2259 10.1872 30.5394 9.95266 30.8646C9.71203 31.1879 9.49752 31.5026 9.29673 31.7946C8.91367 32.3947 8.6122 32.9261 8.41504 33.3042C8.21197 33.6907 8.0928 33.9139 8.0928 33.9139L8.09089 33.9201Z" fill="#390000"/>
<path d="M72.1197 72.9548C72.1197 72.9548 72.342 72.8931 72.7339 72.8045C73.1312 72.7194 73.6562 72.5835 74.2877 72.406C74.6027 72.3244 74.9376 72.2057 75.2939 72.1012C75.6511 72.0012 76.0084 71.8354 76.3903 71.7208C77.1407 71.4284 77.9118 71.08 78.6771 70.7046C79.4289 70.3086 80.1662 69.8875 80.8459 69.4552C81.1695 69.2167 81.5113 69.0213 81.805 68.7939C82.104 68.5701 82.3935 68.3671 82.6493 68.1572C83.1691 67.7544 83.6009 67.3941 83.9012 67.1323C84.2015 66.8706 84.3882 66.7272 84.3882 66.7272C84.3882 66.7272 84.3042 66.9426 84.1382 67.3166C84.0583 67.5076 83.9424 67.7252 83.7951 67.9683C83.654 68.2194 83.4858 68.4951 83.2706 68.7668C82.8664 69.347 82.3004 69.9476 81.6431 70.5302C81.2987 70.8014 80.9574 71.1095 80.5603 71.3496C80.1831 71.6184 79.7627 71.8353 79.354 72.0639C78.9289 72.2583 78.5076 72.4707 78.0668 72.6121C77.637 72.7841 77.1912 72.8795 76.7731 72.9972C75.9168 73.1806 75.1037 73.2842 74.4076 73.264C74.0643 73.2764 73.7399 73.2472 73.4562 73.2139C73.1744 73.1896 72.9358 73.1514 72.7413 73.1037C72.3498 73.0184 72.1285 72.9529 72.1285 72.9529L72.1197 72.9548Z" fill="#390000"/>
<path d="M13.0087 73.6391C14.1784 73.1928 15.0992 72.2038 15.5244 70.9599C15.9496 72.2038 16.8704 73.1928 18.0401 73.6391C16.8704 74.0854 15.9496 75.0744 15.5244 76.3183C15.0992 75.0744 14.1784 74.0854 13.0087 73.6391Z" fill="#FFB636" stroke="black" stroke-width="0.514279"/>
<path d="M63.2241 76.9402C61.4042 77.5266 59.9788 79.0611 59.4196 81.0041C58.8604 79.0611 57.4351 77.5266 55.6152 76.9402C57.4351 76.3537 58.8604 74.8193 59.4196 72.8762C59.9788 74.8193 61.4042 76.3537 63.2241 76.9402Z" fill="#FFB636" stroke="black" stroke-width="0.514279"/>
<path d="M84.9385 16.6828C83.7688 17.1291 82.848 18.1181 82.4228 19.362C81.9976 18.1181 81.0768 17.1291 79.9071 16.6828C81.0768 16.2365 81.9976 15.2475 82.4228 14.0036C82.848 15.2475 83.7688 16.2365 84.9385 16.6828Z" fill="#FFB636" stroke="black" stroke-width="0.514279"/>
<path d="M29.3809 18.6318L29.381 18.6318L29.3809 18.6318ZM29.5487 18.583C31.6037 17.9519 33.212 16.2196 33.814 14.0234C34.4159 16.2196 36.0242 17.9519 38.0792 18.583C36.0242 19.2142 34.4159 20.9465 33.814 23.1427C33.212 20.9465 31.6037 19.2142 29.5487 18.583Z" fill="#FFB636" stroke="black" stroke-width="0.514279"/>
<path d="M67.265 37.5096L20.1204 36.9996C19.2946 36.9907 18.6299 36.3187 18.6299 35.4929C18.6299 34.6655 19.293 33.9906 20.1203 33.976L67.2502 33.1464C68.0585 33.1322 68.8084 33.5661 69.1989 34.2739C70.0062 35.7372 68.9361 37.5277 67.265 37.5096Z" fill="white"/>
<path d="M66.4666 46.7297L20.0706 46.374C19.2456 46.3676 18.5801 45.697 18.5801 44.872C18.5801 44.0411 19.2396 43.3603 20.07 43.3339L66.4078 41.8602C67.7825 41.8165 68.9207 42.919 68.9207 44.2944C68.9207 45.6467 67.8189 46.7401 66.4666 46.7297Z" fill="white"/>
<path d="M51.0582 55.3945L19.7332 54.4126C19.1183 54.3933 18.6299 53.8893 18.6299 53.2741C18.6299 52.6644 19.1241 52.1702 19.7338 52.1702L51.1087 52.1703C51.5792 52.1703 52.0261 52.3758 52.3325 52.7328C53.2454 53.7967 52.4594 55.4384 51.0582 55.3945Z" fill="white"/>
<defs>
<filter id="filter0_d_1756_1197" x="64.7441" y="19.9836" width="16.1965" height="11.2869" filterUnits="userSpaceOnUse" color-interpolation-filters="sRGB">
<feFlood flood-opacity="0" result="BackgroundImageFix"/>
<feColorMatrix in="SourceAlpha" type="matrix" values="0 0 0 0 0 0 0 0 0 0 0 0 0 0 0 0 0 0 127 0" result="hardAlpha"/>
<feOffset dx="1.02856"/>
<feComposite in2="hardAlpha" operator="out"/>
<feColorMatrix type="matrix" values="0 0 0 0 0.223529 0 0 0 0 0 0 0 0 0 0 0 0 0 1 0"/>
<feBlend mode="normal" in2="BackgroundImageFix" result="effect1_dropShadow_1756_1197"/>
<feBlend mode="normal" in="SourceGraphic" in2="effect1_dropShadow_1756_1197" result="shape"/>
</filter>
</defs>
</svg>
