<svg width="30" height="39" viewBox="0 0 30 39" fill="none" xmlns="http://www.w3.org/2000/svg">
<g id="iconfinder_knowledge_4335909">
<path id="Shape" fill-rule="evenodd" clip-rule="evenodd" d="M29.2166 0.663075C29.5277 0.968551 29.702 1.3869 29.6999 1.82292C29.7599 2.76897 30.0678 31.4583 29.8575 31.7586C29.6473 32.059 28.9415 32.1566 28.9415 32.1566C28.9415 32.1566 29.1292 36.579 28.8514 36.7667C28.5736 36.9544 11.4246 37.1346 11.4246 37.1346C11.4246 37.1346 11.4922 37.983 11.3345 38.1482C11.1768 38.3134 10.6212 38.0806 10.0431 37.5626C9.46493 37.0445 9.18712 36.7366 9.18712 36.7366C8.62551 37.2765 8.01184 37.7593 7.35509 38.1782C7.0769 38.1228 6.82707 37.9713 6.64931 37.7503C6.59804 37.5487 6.56784 37.3424 6.55921 37.1346C5.85363 37.2694 5.13761 37.3423 4.41934 37.3523C3.34488 36.546 2.65838 35.3255 2.52724 33.9886C2.52724 32.3968 2.10677 22.5234 1.73135 17.9058L1.6766 17.2322L1.67658 17.232L1.67658 17.232C1.30142 12.617 0.76459 6.01315 0.650155 4.81874C0.643346 4.74768 0.636345 4.67632 0.629337 4.60491L0.629335 4.60488L0.629332 4.60486L0.62933 4.60483L0.629327 4.60481C0.5127 3.41625 0.394526 2.21192 1.1382 2.06319C1.73135 1.92804 9.17961 1.05707 14.931 0.629096C20.6824 0.201121 27.132 0.201121 28.048 0.201121C28.4839 0.190976 28.9054 0.357599 29.2166 0.663075ZM9.08949 35.8657C9.6317 36.2282 10.1349 36.6459 10.5912 37.1121L10.6212 34.5367L7.36257 34.7244C7.28072 35.5315 7.29332 36.3454 7.40011 37.1496C7.45255 37.1908 7.82257 36.8714 8.20546 36.541C8.59018 36.2089 8.98788 35.8657 9.08949 35.8657ZM26.9816 35.693C26.854 35.7531 11.4469 36.2111 11.4469 36.2111V34.5893C12.1088 34.6493 12.7747 34.6493 13.4366 34.5893C13.4366 34.4692 13.309 33.7334 13.2189 33.7334L7.62516 34.0412C6.52143 34.1013 5.66549 34.1914 5.60542 34.349C5.54535 34.5067 5.72555 34.8071 5.72555 34.8071L6.52144 34.8972V36.2411C6.00542 36.2977 5.48605 36.3177 4.96721 36.3012C4.65937 36.2411 4.38156 35.5504 4.11126 34.7995C3.89472 34.325 3.88116 33.7826 4.07372 33.2979C4.07372 33.2979 8.96915 33.1477 13.2489 32.8098C17.5286 32.472 26.1257 31.9839 26.3659 32.059C26.4856 32.0964 26.4563 32.4466 26.419 32.8926C26.3813 33.3423 26.3355 33.8893 26.426 34.3115C26.5321 34.8067 26.7476 35.1691 26.8823 35.3957C26.9763 35.5539 27.031 35.6458 26.9816 35.6705V35.693ZM27.5601 33.891C27.6029 34.5322 27.8503 35.1427 28.2658 35.6329L28.3259 32.1115H27.8379C27.5018 32.6402 27.4012 33.285 27.5601 33.891ZM28.3858 25.4291V26.683C28.3858 26.683 26.246 24.8134 26.1333 24.8134C26.0207 24.8134 25.6453 25.5643 25.833 25.6393C26.7436 26.234 27.6209 26.8782 28.4609 27.569V28.6352C27.5743 27.7916 26.6338 27.0065 25.6453 26.2851C25.405 26.2851 25.0972 26.7731 25.2173 26.8632C25.3375 26.9533 28.4009 29.4911 28.4609 29.6187C28.4888 29.8507 28.4888 30.0851 28.4609 30.317C28.4609 30.317 24.917 27.5389 24.8194 27.569C24.7218 27.599 24.4214 28.057 24.5191 28.1772C24.6167 28.2973 28.3108 30.9327 28.3108 30.9327L26.291 30.8351C26.291 30.8351 23.7832 28.8229 23.603 28.8229C23.4228 28.8229 22.9874 29.0631 23.1375 29.2208C23.2877 29.3785 25.1272 30.8051 25.1272 30.8051L23.6256 30.8726C23.1019 30.3432 22.5505 29.8419 21.9737 29.371C21.8161 29.371 21.4181 29.6788 21.4857 29.7689C21.5099 29.8012 21.6931 29.9558 21.9141 30.1424C22.3101 30.4767 22.8274 30.9134 22.7696 30.9327C22.732 30.9453 20.7434 31.0916 18.2183 31.2775C14.7027 31.5363 10.1471 31.8716 8.36864 32.0289C5.31275 32.2992 4.20903 32.3067 4.05135 32.0289C3.96278 31.8729 3.71544 28.4871 3.41051 24.313C3.17264 21.0569 2.89973 17.321 2.63979 14.2642C2.04663 7.28899 1.73128 3.42971 1.84391 3.19695C1.84391 3.09183 10.2232 2.12326 14.7808 1.91303C19.3383 1.70279 27.8978 1.42498 28.2957 1.76286C28.6937 2.10073 28.3858 24.453 28.3858 24.453C27.9242 24.0544 27.4207 23.707 26.8842 23.4169C26.704 23.4169 26.5163 24.2128 26.5163 24.2128C27.1677 24.5731 27.7925 24.9795 28.3858 25.4291ZM13.0994 35.4752C13.0654 35.3072 13.0503 35.1359 13.0544 34.9646C13.8175 34.883 14.5865 34.8705 15.3519 34.9271C15.3779 35.0887 15.3779 35.2534 15.3519 35.4151C14.6027 35.4758 13.8508 35.4958 13.0994 35.4752ZM18.6399 34.2137C18.805 34.2137 18.745 33.7257 18.6999 33.6206C18.673 33.5578 18.5044 33.57 18.3377 33.582C18.2251 33.5901 18.1133 33.5982 18.0467 33.583C17.9754 33.5668 17.8678 33.5185 17.7504 33.4657C17.5957 33.3962 17.4239 33.3191 17.2959 33.2977C17.0126 33.2921 16.7321 33.3538 16.4775 33.4779C16.0812 33.556 15.6796 33.6037 15.2761 33.6206C15.111 33.6206 15.156 34.1687 15.156 34.1687H16.4024C16.548 34.1687 16.6721 34.0944 16.7936 34.0216C16.9102 33.9518 17.0245 33.8834 17.1532 33.8834C17.347 33.8834 17.4428 33.9936 17.5219 34.0846C17.5501 34.117 17.5761 34.147 17.6037 34.1687C17.9451 34.2339 18.2941 34.2491 18.6399 34.2137ZM17.8288 35.3099C17.7012 35.2499 17.6637 34.8219 17.7613 34.7618C17.9264 34.6642 23.355 34.5366 23.4526 34.6192C23.5502 34.7018 23.5952 35.0321 23.5126 35.0922C23.4301 35.1523 17.9565 35.37 17.8288 35.3099ZM20.5544 33.1102C20.4775 33.2868 20.5035 33.4914 20.622 33.6433C21.9483 33.6558 23.2742 33.5957 24.5939 33.4631C24.6535 33.2981 24.6535 33.1175 24.5939 32.9525C24.5488 32.8474 20.5544 33.1102 20.5544 33.1102ZM3.17252 7.36412C3.04219 6.34277 2.967 5.31515 2.94727 4.28571C3.64657 4.1284 4.36708 4.08781 5.07963 4.16557C5.11255 4.44241 5.11255 4.72217 5.07963 4.999L3.79571 5.12664C3.79571 5.12664 3.92335 7.19894 3.92335 7.30405C3.92335 7.39245 3.4614 7.37465 3.2564 7.36676C3.21762 7.36526 3.18804 7.36412 3.17252 7.36412ZM19.4133 9.2862C18.8352 6.34294 16.9956 5.4044 15.8694 5.38938C14.0674 5.38938 12.9637 7.5743 12.2954 10.1497C7.95562 7.89716 6.12359 8.57291 5.57548 9.50394C4.38166 11.5312 6.03349 13.5659 9.44978 16.5693C6.2212 19.5726 4.54684 22.2381 5.61303 23.8974C6.47648 25.2339 8.57131 24.911 11.2593 23.6947C11.3168 24.5501 11.5906 25.3768 12.0552 26.0973C13.5043 27.8918 14.3978 28.6502 16.2748 25.5868C16.8383 24.6226 17.2964 23.6006 17.6414 22.5384C21.2228 24.1377 23.9484 23.8298 24.3989 23.064C24.8494 22.2981 25.2773 20.361 21.7484 16.9072C25.0821 14.0089 27.2145 10.9005 25.5026 9.0159C24.0685 7.46919 22.0037 7.9347 19.4133 9.2862ZM18.8052 14.3468C18.8803 13.5509 18.9254 12.7776 18.9254 12.0943C18.9244 11.5717 18.8867 11.0499 18.8128 10.5326C17.8742 11.0807 16.9207 11.7114 15.9971 12.3721L17.4012 13.3107C17.8967 13.6636 18.3698 14.0164 18.8052 14.3468ZM19.2404 15.7209C19.6809 16.0964 20.0863 16.4493 20.4568 16.7796C19.9387 17.2151 19.3981 17.6506 18.835 18.0711C19.0001 17.2902 19.1278 16.5018 19.2404 15.7209ZM18.1742 18.5591C18.3994 17.4628 18.5796 16.3441 18.7073 15.2779C18.6596 15.2395 18.612 15.2009 18.5641 15.1621C18.3401 14.9806 18.1098 14.7939 17.8438 14.6022C16.9879 13.9264 16.1544 13.3408 15.3586 12.8152L13.8569 13.9264C13.2637 14.3769 12.6556 14.8575 12.0549 15.3605C11.9873 15.9912 11.9197 16.6895 11.8672 17.4403L13.0986 18.4539C13.992 19.1747 14.863 19.7829 15.6138 20.301C16.207 19.9181 16.8152 19.5126 17.4233 19.0846C17.6861 18.9119 17.9339 18.7393 18.1742 18.5591ZM16.0347 6.08014C16.9056 6.08014 18.137 7.38659 18.6701 9.70667C17.6189 10.3374 16.5002 11.0957 15.3289 11.9592C14.4654 11.4035 13.6695 10.923 12.9412 10.5251C13.5794 8.15244 14.5856 6.05762 16.0347 6.08014ZM14.706 12.3797C14.0228 11.9593 13.362 11.5838 12.7388 11.261C12.4911 12.3046 12.3184 13.3558 12.1982 14.2493L12.2959 14.1742C12.655 13.8978 13.021 13.6161 13.3996 13.3408L14.706 12.3797ZM11.169 22.8463C8.87898 23.92 7.10701 24.2504 6.3712 23.3494C5.46269 22.2232 7.44489 19.5952 10.0803 17.125L11.199 18.0786C11.0807 19.6653 11.0707 21.2582 11.169 22.8463ZM10.7415 16.4942L11.2821 16.9447L11.3496 15.9536L10.7415 16.4942ZM11.4921 14.8123C11.0191 15.1952 10.5686 15.5631 10.1331 15.9536C6.22879 12.5073 5.55304 10.9831 6.28885 9.89435C6.70181 9.28618 8.90175 9.42133 12.1003 10.9455C11.8573 12.0514 11.6718 13.1691 11.5447 14.2942C11.5393 14.3536 11.531 14.4149 11.5226 14.4771V14.4771V14.4771V14.4771V14.4771V14.4771C11.5075 14.588 11.4921 14.7017 11.4921 14.8123ZM12.9939 19.5576L11.8001 18.5665V18.589C11.7294 19.9095 11.7294 21.2329 11.8001 22.5534C12.7236 22.0954 13.7147 21.5248 14.7508 20.8866C14.1727 20.4886 13.587 20.0531 12.9939 19.5576ZM16.035 25.1214C14.4508 27.6892 13.7 27.0585 12.4836 25.5493C12.0887 24.9003 11.8664 24.1611 11.8379 23.4019C12.9792 22.8463 14.2105 22.1556 15.4944 21.3672C16.05 21.7158 16.624 22.0341 17.2139 22.3207C16.9295 23.3035 16.534 24.2507 16.035 25.1439V25.1214ZM16.4327 20.834C16.8006 21.0592 17.161 21.2695 17.4989 21.4497C17.634 20.9166 17.7692 20.391 17.9043 19.8804L17.3637 20.2408L16.4327 20.834ZM23.889 22.4633C23.5511 23.079 21.5013 23.4694 17.9424 21.6749C18.1601 20.9617 18.3628 20.2108 18.543 19.4224C19.4516 18.7917 20.33 18.1235 21.1559 17.4478C24.1292 20.3234 24.2569 21.765 23.8815 22.4333L23.889 22.4633ZM19.3684 14.8499C20.0066 15.3529 20.5697 15.8335 21.0728 16.284L21.0653 16.2539C24.2038 13.4834 26.0958 10.7053 24.6843 9.39883C23.6556 8.39272 21.711 8.97086 19.5486 10.1497C19.6087 10.5401 19.6087 10.878 19.6087 11.2909C19.5974 12.4809 19.5172 13.6692 19.3684 14.8499ZM13.9624 17.673C14.4505 18.7917 17.1009 18.8893 17.2436 17.0198C17.3574 16.3532 17.0884 15.6791 16.5471 15.2739C16.0058 14.8686 15.2832 14.8006 14.6757 15.0976C13.7447 15.5406 13.4669 16.5167 13.9549 17.643L13.9624 17.673ZM16.0253 15.9746C15.7498 15.7688 15.3823 15.7346 15.0736 15.886L15.0661 15.856C14.8289 15.9736 14.6535 16.1873 14.5846 16.443C14.5156 16.6986 14.5598 16.9715 14.7057 17.1925C14.9535 17.7631 16.305 17.8157 16.38 16.8621C16.4377 16.5231 16.3007 16.1804 16.0253 15.9746Z" fill="#235957"/>
</g>
</svg>
