<svg width="39" height="39" viewBox="0 0 39 39" fill="none" xmlns="http://www.w3.org/2000/svg">
<path fill-rule="evenodd" clip-rule="evenodd" d="M29.4038 3.77386C29.5436 3.48147 36.9936 0.41796 37.5328 0.238536C38.0788 0.0524658 38.3983 0.557513 38.152 1.6407C37.9057 2.7239 36.4543 8.42561 35.9084 9.00375C35.7231 9.24407 35.4365 9.38488 35.1328 9.38488C34.829 9.38488 34.5424 9.24407 34.3571 9.00375C33.8844 8.56516 32.2932 7.19622 32.2932 7.19622C32.2932 7.19622 28.6382 11.3894 19.0977 15.4697C9.55725 19.5499 6.37488 20.2012 3.33897 20.3806C0.356165 20.5569 0.323279 20.3419 0.266211 19.9687L0.263123 19.9486C0.178778 19.3751 0.298963 19.3682 0.547662 19.3539C0.613053 19.3501 0.687329 19.3458 0.769107 19.3306C4.60558 19.2117 8.39977 18.4942 12.0139 17.2041C17.5798 15.1374 25.1695 11.1303 27.4598 9.40248C28.7743 8.42927 30.0303 7.37971 31.2214 6.25922C31.2214 6.25922 29.264 4.06626 29.4038 3.77386ZM19.5693 19.2919C21.291 19.1754 22.6291 19.0849 23.0054 19.6628C23.4381 20.3539 23.5846 22.733 23.6379 28.1091C23.6822 32.5795 23.6528 34.9776 23.6416 35.8879V35.888V35.8881V35.8882C23.6394 36.0725 23.6379 36.1958 23.6379 36.2629C23.6379 36.6616 23.558 37.8644 22.6392 37.9043C21.7205 37.9442 16.9136 37.9907 16.1147 37.9043C16.0414 37.8964 15.9698 37.8895 15.9 37.8828L15.8992 37.8828C15.2078 37.8166 14.6984 37.7679 14.65 36.8809C14.5967 35.9041 14.377 29.4581 14.2905 26.1952L14.2842 25.9601C14.2 22.8067 14.1329 20.2924 15.0295 19.9552C16.2438 19.5856 17.5021 19.38 18.7711 19.3438C19.0442 19.3274 19.3107 19.3094 19.5686 19.2919L19.5689 19.2919L19.5692 19.2919L19.5693 19.2919ZM16.3545 21.5237C16.1621 21.6168 16.3066 23.9258 16.3455 24.5482C16.3511 24.6367 16.3545 24.6911 16.3545 24.7002C16.5522 24.7397 16.7559 24.7397 16.9537 24.7002C17.0173 23.8885 17.0173 23.0731 16.9537 22.2613C16.9537 22.145 17.8556 22.2138 18.2879 22.2468C18.399 22.2552 18.4791 22.2613 18.5049 22.2613C18.6314 22.2613 18.6114 21.7031 18.5449 21.5038C18.4783 21.3044 16.5742 21.4174 16.3545 21.5237ZM2.59334 25.4045C2.5699 26.2407 2.60104 27.0776 2.68655 27.9098C2.95607 27.9428 3.22725 27.9606 3.49879 27.9629C3.49879 27.9629 3.39227 26.4146 3.40558 26.3415C3.41164 26.3082 3.64523 26.3052 3.91118 26.3018H3.91121C4.22961 26.2977 4.59436 26.2931 4.67054 26.2351C4.81035 26.1288 4.74378 25.5706 4.71049 25.4045C4.6772 25.2383 2.7265 25.3314 2.59334 25.4045ZM0.515878 23.65C0.68232 23.4374 2.85273 23.1117 5.4692 22.9124C8.09232 22.713 10.2494 22.5934 10.336 23.763C10.4225 24.9326 10.4824 36.7679 10.336 37.1667L10.3181 37.2157C10.1801 37.5969 10.0495 37.9575 8.95782 37.9575C8.44151 37.9575 7.36513 38.0149 6.25843 38.0739H6.25833L6.25813 38.0739L6.25801 38.0739C4.92458 38.145 3.54721 38.2185 3.05246 38.1967C2.89837 38.1899 2.7491 38.1891 2.60676 38.1883C1.91265 38.1845 1.38308 38.1816 1.26154 37.4923C1.17824 37.0199 1.06479 34.8171 0.94936 32.576C0.861829 30.8765 0.77316 29.1549 0.695635 28.1489L0.655472 27.6301C0.492742 25.5326 0.361943 23.8467 0.515878 23.65ZM9.06451 31.465C9.06451 31.5381 9.10446 32.6745 9.10446 32.6745C8.68769 32.1917 8.22872 31.747 7.73298 31.3454C7.6198 31.3986 7.33352 31.8106 7.38678 31.9036C7.40778 31.9403 7.69069 32.195 8.0257 32.4966L8.0258 32.4967C8.54033 32.96 9.17769 33.5338 9.17769 33.5982V34.502C8.5564 33.7945 7.8892 33.1285 7.18039 32.5084C7.01785 32.7217 6.86673 32.9436 6.72767 33.1729C6.72767 33.1729 9.18435 35.3326 9.18435 35.4589C9.18435 35.5851 9.21764 36.6683 9.21764 36.6683C9.09802 36.6785 8.97775 36.6785 8.85813 36.6683C8.82274 36.6683 8.27759 35.9827 7.71526 35.2754C7.11373 34.5188 6.49255 33.7375 6.4547 33.7444C6.38147 33.7577 5.92874 34.1963 5.96869 34.2694C6.00864 34.3425 8.15241 36.8345 8.15241 36.8345H7.29357C6.74074 36.0853 6.14499 35.3686 5.50931 34.688C5.36284 34.688 4.98335 35.12 5.01664 35.1931C5.52911 35.7444 6.01351 36.321 6.46802 36.9209C6.24735 36.9502 6.02484 36.9635 5.80225 36.9607C5.40073 36.4508 4.9671 35.967 4.504 35.512C4.35753 35.512 3.83823 35.8975 3.92478 36.0038C4.25783 36.3461 4.56493 36.7126 4.84354 37.1003C4.79028 37.1402 2.44012 37.1402 2.44012 37.1402C2.44012 37.1402 2.17381 31.9967 2.02734 29.7771C1.96636 28.8531 1.865 27.8266 1.77657 26.931C1.6526 25.6755 1.55404 24.6774 1.62788 24.5804C2.9491 24.1928 4.31862 23.9937 5.69572 23.989C7.91939 23.876 9.18435 23.9358 9.21764 23.989C9.25093 24.0422 9.13109 30.5945 9.13109 30.5945C9.13109 30.5945 8.19236 29.7838 8.06586 29.8502C7.93936 29.9167 7.73963 30.2689 7.7929 30.342C7.81434 30.3714 8.02244 30.5473 8.26431 30.7517L8.26434 30.7518C8.62328 31.0551 9.05656 31.4214 9.06451 31.465ZM21.1421 29.086C21.6422 29.4251 22.1182 29.7981 22.5669 30.2024V31.2125C22.1057 30.7785 21.6116 30.3808 21.0889 30.023C20.9757 30.0562 20.8359 30.6876 20.8692 30.7407C20.8833 30.7633 21.1909 30.9879 21.5405 31.2432L21.5405 31.2432C22.0151 31.5897 22.5669 31.9927 22.5669 32.0233V32.9603C22.5669 32.9603 20.5696 31.5581 20.4897 31.5714C20.4098 31.5847 20.1635 32.1163 20.2367 32.2359C20.3099 32.3555 22.5669 33.864 22.5669 33.864V35.0536C22.5669 35.0536 20.0569 33.1264 19.9038 33.1264C19.7507 33.1264 19.5376 33.7577 19.6109 33.8308C19.6316 33.8515 19.8768 34.0099 20.2187 34.2307C21.0873 34.7918 22.5792 35.7555 22.5935 35.8842C22.5969 36.1327 22.5858 36.3813 22.5602 36.6285L22.2673 36.6817C22.2673 36.6817 19.238 34.3491 19.045 34.409C18.8519 34.4688 18.6322 34.914 18.6855 35.0203C18.7387 35.1266 21.4284 36.788 21.4284 36.788H20.2567C20.2567 36.788 18.5057 35.6849 18.4325 35.7048C18.3592 35.7247 18.033 36.2962 18.0863 36.3693C18.1135 36.4068 18.4619 36.5626 18.7821 36.7059L18.7824 36.706L18.7825 36.7061L18.7826 36.7061C19.0875 36.8425 19.3666 36.9674 19.3179 36.9674C19.2181 36.9674 15.9358 36.9674 15.8626 36.8744C15.7894 36.7813 15.5031 29.3718 15.4298 26.0292C15.3387 24.2773 15.3989 22.5209 15.6096 20.7793C15.6505 20.7113 17.5648 20.5875 19.1318 20.4862C19.8605 20.4391 20.5141 20.3969 20.8692 20.3673C21.9877 20.2743 22.2606 20.261 22.2606 20.3673C22.2606 20.4736 22.5669 29.3518 22.5669 29.3518C22.5669 29.3518 21.5749 28.4016 21.5017 28.5012C21.4872 28.5209 21.4608 28.5528 21.4285 28.5918L21.4282 28.5921L21.4281 28.5922C21.2966 28.7508 21.0674 29.0274 21.1421 29.086ZM35.8675 6.55979L35.8673 6.5602C35.6249 7.42571 35.4106 8.19045 35.1494 8.0734C33.572 6.98538 32.1919 5.63701 31.0683 4.08619C30.961 3.91575 31.5976 3.72875 32.4057 3.49136C32.9524 3.33077 33.5776 3.14711 34.1042 2.9299C34.8132 2.63741 35.5616 2.27036 36.1207 1.99614C36.5905 1.76571 36.9267 1.60083 36.9936 1.60083C37.1401 1.60083 36.3811 4.81718 36.0549 5.90702C35.9899 6.12282 35.9278 6.34442 35.8675 6.55979ZM28.6248 14.3333C29.9431 14.2602 34.6434 14.2602 35.4956 14.2602V14.2536C36.3411 14.2336 36.7738 14.7985 36.7872 15.8817C36.7898 16.0988 36.8013 16.7286 36.8177 17.6276L36.8178 17.6282L36.8178 17.6289C36.8832 21.2146 37.0268 29.0789 37.0002 32.1229L36.9952 32.7117C36.9674 35.9811 36.9637 36.4232 36.674 36.9009C36.6405 36.9562 36.6112 37.0074 36.5841 37.0549C36.3636 37.4416 36.2825 37.5837 35.156 37.6784C33.8911 37.7848 29.4837 37.8578 28.7979 37.7848C28.7607 37.7808 28.7235 37.777 28.6865 37.7733C28.041 37.7081 27.4358 37.6471 27.3665 36.5221C27.2933 35.3326 27.2933 26.2218 27.2933 26.2218V15.8484C27.239 15.465 27.3549 15.077 27.6107 14.7859C27.8666 14.4948 28.2369 14.3295 28.6248 14.3333ZM34.658 32.2904L34.6582 32.2906L34.6584 32.2907C35.2309 32.703 35.7405 33.07 35.7614 33.0997C35.8021 33.4285 35.8021 33.7611 35.7614 34.0899C35.7081 34.0035 33.0983 31.8371 32.852 31.9235C32.6056 32.0099 32.5257 32.588 32.5857 32.6678C32.6055 32.6941 32.9519 32.9209 33.4069 33.2187L33.4071 33.2188C34.3285 33.822 35.6948 34.7163 35.6948 34.8275V36.0037L32.5124 33.6912C32.5124 33.6912 32.1463 34.256 32.2195 34.3225C32.2421 34.343 32.5343 34.5404 32.9241 34.8036C33.7983 35.3942 35.1631 36.3161 35.0756 36.3161C34.6112 36.3242 34.1467 36.3064 33.6842 36.2629C33.6382 36.2476 33.4614 36.131 33.2269 35.9762C32.6469 35.5935 31.7139 34.9779 31.5338 35.0867C31.2808 35.2395 31.101 35.4854 31.1742 35.6316C31.2137 35.7105 31.6524 35.9614 32.0417 36.1842C32.3741 36.3745 32.6706 36.5441 32.6522 36.5686C32.6123 36.6218 28.8241 36.8012 28.5711 36.5287C28.4106 36.3559 28.4243 32.3904 28.437 28.6928V28.6925C28.4443 26.5618 28.4514 24.5201 28.4246 23.3444C28.3514 20.128 28.3514 15.8019 28.4779 15.5095C28.5793 15.2751 30.2971 15.3012 31.5888 15.3208L31.5889 15.3208C31.9089 15.3256 32.2026 15.3301 32.4392 15.3301C33.4816 15.3055 34.5237 15.3902 35.5483 15.5826C35.5483 15.6956 35.6216 23.9557 35.6216 23.9557C35.6216 23.9557 34.29 22.713 34.1036 22.8393C33.9334 22.9859 33.8281 23.1937 33.8107 23.4175C34.4304 23.8345 35.022 24.2918 35.5816 24.7864V25.8297C35.1097 25.3075 34.5953 24.8252 34.0437 24.3877C33.9372 24.4408 33.8107 25.0522 33.8107 25.0522C33.8107 25.0522 35.5816 26.7135 35.6016 26.8199C35.6216 26.9262 35.6549 27.9562 35.6549 27.9562C35.6549 27.9562 33.7774 26.5075 33.7374 26.574C33.6975 26.6404 33.4312 27.1521 33.5244 27.2385C33.5591 27.2707 33.8629 27.4914 34.2308 27.7587C34.8516 28.2098 35.6549 28.7934 35.6549 28.8268V29.9831C35.6549 29.9831 33.4645 28.2353 33.3913 28.2885C33.3039 28.4912 33.2392 28.7029 33.1982 28.9198C33.1982 28.9198 35.6881 30.8669 35.7081 31.0131C35.7281 31.1593 35.8146 32.3422 35.8146 32.3422L33.2182 30.3087C33.2182 30.3087 32.8719 30.9267 33.0517 31.1061C33.1509 31.2052 33.9522 31.7822 34.658 32.2904ZM29.0972 19.1445C29.0229 18.2604 29.0095 17.3722 29.0573 16.4863V16.473C29.1305 16.38 31.3342 16.2803 31.2677 16.5129C31.2362 16.6228 31.2389 16.749 31.2414 16.8649C31.2442 16.9943 31.2467 17.1108 31.2011 17.1775C31.156 17.2432 30.7967 17.2459 30.4627 17.2484C30.1554 17.2506 29.8695 17.2528 29.8695 17.3037C29.9323 17.929 29.9323 18.559 29.8695 19.1843C29.763 19.2375 29.0972 19.2375 29.0972 19.1445Z" fill="#235957"/>
</svg>
