<svg width="47" height="41" viewBox="0 0 47 41" fill="none" xmlns="http://www.w3.org/2000/svg">
<g clip-path="url(#clip0_1756_1158)">
<mask id="path-1-outside-1_1756_1158" maskUnits="userSpaceOnUse" x="-0.496094" y="7.9126" width="43" height="34" fill="black">
<rect fill="white" x="-0.496094" y="7.9126" width="43" height="34"/>
<path d="M14.5717 37.6158C14.7546 37.7781 14.9271 37.9568 15.1243 38.0986C16.246 38.9039 16.2255 39.9228 15.0257 40.6069C13.6658 41.3814 12.2277 41.3711 10.8349 40.7405C9.60845 40.1858 9.49135 39.1073 10.4713 38.2116C10.6808 38.0205 10.8657 37.8028 11.0629 37.5973C11.0444 37.548 11.0239 37.4987 11.0054 37.4494C10.2864 37.4494 9.56737 37.4617 8.84835 37.4474C7.63834 37.4227 6.42834 37.3652 5.21833 37.3508C4.79309 37.3467 4.62463 37.1988 4.61436 36.7674C4.57327 35.167 4.50137 33.5647 4.45617 31.9643C4.44179 31.4138 4.80336 31.1714 5.28407 31.4425C5.61482 31.6295 5.88599 31.9315 6.16744 32.2006C6.78579 32.7922 7.27473 32.7573 7.79036 32.0691C8.56279 31.0378 8.46213 28.9362 7.59315 27.9769C7.11654 27.451 6.71389 27.453 6.23934 27.9933C6.04212 28.2172 5.90448 28.5213 5.66618 28.6692C5.40322 28.8335 5.05399 28.9178 4.74789 28.9095C4.65955 28.9075 4.5178 28.4596 4.51575 28.2152C4.49726 26.7628 4.42125 25.3021 4.54657 23.86C4.63079 22.9109 4.30005 22.0213 4.40893 21.0743C4.51575 20.1416 4.43152 19.1864 4.43152 18.2414L4.28977 18.1551C4.10077 18.3317 3.8974 18.4961 3.72689 18.6892C2.786 19.7513 1.59243 19.6609 0.986399 18.3811C0.292033 16.9143 0.326957 15.4043 1.22265 14.0094C1.86771 13.0028 2.9524 13.0192 3.6632 13.9766C3.83371 14.2087 4.02066 14.4285 4.19938 14.6545C4.2528 14.6401 4.30621 14.6278 4.36168 14.6134C4.38427 14.3915 4.42741 14.1676 4.42331 13.9457C4.3966 12.6043 4.3514 11.2648 4.32881 9.92335C4.31648 9.13448 4.51164 8.92289 5.31283 8.91878C7.25007 8.91056 9.18731 8.92289 11.1266 8.93521C11.5847 8.93932 11.7963 9.24953 11.5765 9.69326C11.4101 10.0302 11.1204 10.3157 10.8493 10.591C10.122 11.3326 10.1878 11.8811 11.0937 12.4029C12.1456 13.009 13.9328 12.9062 14.8676 12.1872C15.5455 11.6634 15.5537 11.1909 14.8758 10.6588C14.4629 10.3342 14.0314 10.0343 14.013 9.43031C14.0027 9.08929 14.1136 8.91056 14.4896 8.91262C16.4823 8.92289 18.477 8.9044 20.4697 8.92494C21.31 8.93316 21.6161 9.31116 21.5914 10.174C21.5565 11.4025 21.5236 12.633 21.4928 13.8615C21.4887 14.0608 21.4928 14.2601 21.4928 14.4573L21.6325 14.5415C21.8051 14.3504 21.9982 14.1738 22.1481 13.9663C22.9596 12.8528 24.1141 12.8939 24.7715 14.1019C25.4741 15.3899 25.5255 16.7499 24.9667 18.0934C24.3832 19.4925 23.1773 19.6671 22.1707 18.5598C21.992 18.3626 21.7804 18.1982 21.5832 18.0174L21.4147 18.0811V23.0054C23.3479 23.0054 25.3878 22.9992 27.4278 23.0156C27.6414 23.0156 27.9948 23.104 28.0359 23.2293C28.1098 23.4594 28.0749 23.7983 27.9475 24.0058C27.7462 24.3304 27.4257 24.581 27.1628 24.8707C26.7108 25.372 26.7437 25.828 27.2573 26.2615C28.3111 27.151 30.6058 27.0586 31.5693 26.0848C31.9822 25.6678 31.9802 25.2877 31.5467 24.881C31.3577 24.7043 31.103 24.5831 30.9489 24.3797C30.7558 24.1229 30.5832 23.825 30.497 23.519C30.4107 23.2108 30.5524 22.9951 30.9427 22.9971C32.956 23.0074 34.9672 22.9889 36.9804 23.0095C37.8063 23.0177 38.0959 23.3813 38.0754 24.2811C38.0508 25.4356 38.0097 26.5902 37.9789 27.7447C37.9727 27.9645 37.9789 28.1864 38.0877 28.5007C38.2644 28.3179 38.4616 28.1494 38.6136 27.9481C39.4949 26.7812 40.6988 26.8655 41.3233 28.1905C41.9951 29.6162 42.0547 31.0789 41.2206 32.4676C40.6392 33.4352 39.6018 33.5071 38.8252 32.7059C38.7081 32.5847 38.6034 32.4533 38.4822 32.3382C38.3507 32.215 38.2069 32.1081 37.9604 31.9048C37.9398 32.2191 37.9193 32.4081 37.9152 32.5971C37.8802 33.8256 37.8618 35.0561 37.8125 36.2846C37.7857 36.9687 37.5495 37.283 36.8798 37.3118C34.9076 37.3981 32.9334 37.433 30.9612 37.4556C30.4949 37.4617 30.4887 37.0488 30.6284 36.7633C30.7866 36.4407 31.0475 36.1531 31.3084 35.8984C32.085 35.1444 32.0192 34.5343 31.0763 34.0063C30.0347 33.4229 28.2249 33.5544 27.3045 34.2775C26.6779 34.7706 26.682 35.2061 27.2758 35.7423C27.6003 36.034 27.9414 36.3421 28.1509 36.7119C28.3091 36.9913 28.3091 37.4227 27.7811 37.4268C25.7699 37.4391 23.7546 37.4946 21.7455 37.4145C20.5704 37.3672 19.4138 37.5583 18.2367 37.47C17.0534 37.3816 15.8598 37.4515 14.6703 37.4515C14.6375 37.5069 14.6067 37.5624 14.5738 37.6158H14.5717ZM14.6621 22.9746C14.7813 23.0321 14.8285 23.0732 14.8758 23.0732C16.7 23.0814 18.5263 23.0917 20.3506 23.0875C20.7471 23.0875 20.9484 22.8718 20.9443 22.4466C20.932 21.0127 20.9299 19.5787 20.9443 18.1448C20.9443 17.9455 21.0224 17.6025 21.1271 17.5758C21.3695 17.5141 21.69 17.5347 21.9037 17.6538C22.1851 17.812 22.3988 18.0934 22.6371 18.3276C23.278 18.9563 23.8717 18.9193 24.3134 18.1304C24.9913 16.9204 24.9708 15.6611 24.3052 14.4552C23.7731 13.4938 23.2143 13.5082 22.5179 14.3689C22.2858 14.6565 21.9632 14.9318 21.6243 15.0571C21.0922 15.2523 20.9217 15.0859 20.9299 14.5168C20.9525 13.0829 20.9874 11.651 21.0203 10.2171C21.0347 9.60493 20.934 9.48988 20.328 9.48783C18.5407 9.48167 16.7514 9.48372 14.9641 9.48783C14.847 9.48783 14.732 9.52686 14.4711 9.57206C14.7566 9.82063 14.9353 9.99936 15.1367 10.1473C16.2625 10.9895 16.2049 12.1482 14.9559 12.8097C13.6637 13.4938 12.2996 13.5287 10.9623 12.9597C9.61256 12.3844 9.45027 11.1847 10.5247 10.1822C10.724 9.99731 10.8904 9.77749 11.1697 9.46523C10.7568 9.46523 10.535 9.46523 10.3131 9.46523C8.7292 9.45701 7.14736 9.46112 5.56552 9.43647C4.8013 9.42414 4.8013 9.41182 4.80747 10.1904C4.81979 11.6613 4.83212 13.1322 4.81157 14.6031C4.80952 14.8045 4.65545 15.129 4.50753 15.1701C4.30005 15.2276 3.98573 15.1373 3.80495 14.9955C3.53172 14.7819 3.34683 14.4614 3.10648 14.2046C2.66685 13.7341 2.26831 13.7383 1.82046 14.2005C0.910389 15.1393 0.819998 17.3559 1.64995 18.3728C2.1471 18.983 2.62987 19.0035 3.20714 18.4509C3.4742 18.1941 3.72278 17.9044 4.02887 17.7052C4.55889 17.3621 4.93278 17.5819 4.93689 18.2044C4.94716 19.5644 4.95332 20.9243 4.95538 22.2822C4.95538 22.7794 5.13821 23.0218 5.68467 23.0177C7.21104 23.0095 8.73741 23.0485 10.2658 23.067C10.537 23.0711 10.8102 23.067 11.0814 23.067C11.102 23.0156 11.1246 22.9643 11.1451 22.9129C10.8883 22.6582 10.6336 22.3993 10.3727 22.1508C9.64338 21.4564 9.69063 20.5093 10.4898 19.893C11.5971 19.0384 14.0314 19.0241 15.1511 19.8663C16.0858 20.5689 16.1166 21.7235 15.223 22.4938C15.0483 22.6459 14.8696 22.7938 14.6601 22.9725L14.6621 22.9746ZM31.1091 36.8352C31.14 36.9091 31.1728 36.9851 31.2036 37.0591C33.0094 37.0591 34.8152 37.0591 36.6189 37.057C36.7483 37.057 36.8777 37.0324 37.0051 37.0036C37.3851 36.9214 37.5762 36.6955 37.5618 36.2908C37.5207 35.1362 37.4694 33.9817 37.4653 32.8292C37.4653 32.3937 37.4406 31.7137 37.681 31.5699C38.2521 31.2289 38.6301 31.8287 39.006 32.2026C39.7682 32.9627 40.4338 32.9093 40.9063 31.9438C41.4897 30.7523 41.463 29.5156 40.7666 28.3651C40.216 27.4571 39.7209 27.4653 39.0368 28.2809C38.815 28.5459 38.5705 28.8376 38.2726 28.9814C37.683 29.267 37.3975 29.0574 37.4098 28.4124C37.4344 27.0709 37.4755 25.7315 37.5125 24.39C37.531 23.6792 37.4386 23.5724 36.7298 23.5703C34.9795 23.5662 33.2272 23.5683 31.4769 23.5703C31.3577 23.5703 31.2406 23.5991 30.9366 23.6402C31.3043 23.9463 31.5508 24.1476 31.7953 24.3551C32.6869 25.1111 32.6766 26.1156 31.6987 26.7237C30.2997 27.5968 28.7939 27.6625 27.3209 26.9559C26.0534 26.3478 25.961 25.2076 27.0025 24.2626C27.2059 24.0777 27.3723 23.8538 27.5572 23.6484C27.5264 23.5991 27.4956 23.5498 27.4668 23.5025C25.7371 23.5025 24.0052 23.5046 22.2755 23.5025C21.5236 23.5025 21.4106 23.6011 21.4045 24.3653C21.3901 25.7068 21.388 27.0483 21.3736 28.3898C21.3675 29.0636 21.0943 29.2608 20.4656 29.002C20.2232 28.9013 20.0239 28.6774 19.8267 28.4884C19.6542 28.322 19.5206 28.1145 19.3522 27.9419C19.0173 27.5948 18.6763 27.6174 18.325 27.9337C17.3143 28.8438 17.1664 31.2453 18.062 32.2766C18.553 32.8415 18.9886 32.8641 19.5371 32.3526C19.8226 32.0876 20.0815 31.7794 20.404 31.572C20.9258 31.2391 21.2997 31.4631 21.3038 32.0712C21.31 33.4311 21.3058 34.7911 21.31 36.1511C21.31 36.7961 21.4599 36.9523 22.0844 36.9687C23.7423 37.0098 25.3981 37.0468 27.0559 37.0817C27.247 37.0858 27.436 37.0632 27.627 37.0529L27.7113 36.8763C27.4463 36.6421 27.1874 36.3996 26.9162 36.1737C26.0185 35.4259 26.0534 34.4172 27.0066 33.7496C28.1591 32.9422 30.3388 32.8847 31.5406 33.6325C32.5739 34.2755 32.6602 35.3869 31.748 36.188C31.52 36.3873 31.3228 36.6215 31.1112 36.8393L31.1091 36.8352ZM4.91635 28.3466C4.95332 28.3816 4.9903 28.4165 5.02728 28.4514C5.22655 28.2542 5.45458 28.0796 5.62098 27.8598C6.52078 26.6724 7.72463 26.7545 8.37585 28.096C8.99215 29.3676 9.03324 30.6906 8.47035 31.991C7.88486 33.3387 6.67486 33.5154 5.69289 32.4389C5.51005 32.2376 5.28818 32.0712 5.08686 31.8883C5.02934 31.9212 4.96976 31.9561 4.91224 31.989V36.9769C6.91316 36.9769 8.93874 36.9708 10.9643 36.9851C11.1615 36.9851 11.4923 37.0632 11.5251 37.1762C11.5909 37.396 11.5642 37.7083 11.445 37.9055C11.2786 38.1849 10.9951 38.3944 10.7609 38.6348C10.1878 39.2182 10.2268 39.6866 10.8904 40.1426C11.934 40.8596 14.0438 40.7528 15.0114 39.9331C15.4962 39.5222 15.5023 39.1483 15.0134 38.7293C14.8018 38.5485 14.4896 38.4355 14.3642 38.2136C14.1855 37.8973 14.1383 37.509 14.0355 37.1495C14.2882 37.0878 14.5389 36.9749 14.7915 36.9728C16.5809 36.9564 18.3681 36.9646 20.1575 36.9646C20.5355 36.9646 20.8929 36.9297 20.8847 36.4202C20.8601 35.0048 20.8313 33.5893 20.7984 32.1739C20.7984 32.1307 20.743 32.0896 20.6649 31.9787C20.4245 32.2129 20.1924 32.4163 19.9849 32.6443C19.1837 33.5297 18.1607 33.4681 17.5094 32.4697C16.9404 31.5987 16.8479 30.6249 16.9753 29.6224C17.0698 28.8726 17.2876 28.1597 17.8258 27.5968C18.4277 26.9702 19.1817 26.962 19.7959 27.5701C19.9787 27.7529 20.1102 27.9892 20.2951 28.1679C20.4471 28.3138 20.6485 28.4103 20.9114 28.5849C20.9114 27.1223 20.9073 25.8198 20.9114 24.5153C20.9155 23.6977 20.858 23.6525 20.0363 23.6504C18.1915 23.6463 16.3487 23.6258 14.5039 23.6052C14.0294 23.5991 13.8691 23.3977 14.091 22.9766C14.2656 22.6438 14.5574 22.3583 14.8429 22.1035C15.49 21.5262 15.5167 20.912 14.8758 20.3512C13.9082 19.5027 11.6361 19.5335 10.6952 20.4087C10.233 20.838 10.196 21.2941 10.6007 21.783C10.8369 22.0686 11.1369 22.311 11.332 22.6233C11.4532 22.8184 11.519 23.1348 11.445 23.3361C11.3957 23.4696 11.0588 23.56 10.8472 23.5621C9.09692 23.5785 7.34457 23.5888 5.59428 23.5621C5.11151 23.5539 4.96565 23.7552 4.95949 24.1784C4.94922 24.8296 4.92251 25.4829 4.91635 26.1341C4.90813 26.8716 4.91635 27.6112 4.91635 28.3508V28.3466Z"/>
</mask>
<path d="M14.5717 37.6158C14.7546 37.7781 14.9271 37.9568 15.1243 38.0986C16.246 38.9039 16.2255 39.9228 15.0257 40.6069C13.6658 41.3814 12.2277 41.3711 10.8349 40.7405C9.60845 40.1858 9.49135 39.1073 10.4713 38.2116C10.6808 38.0205 10.8657 37.8028 11.0629 37.5973C11.0444 37.548 11.0239 37.4987 11.0054 37.4494C10.2864 37.4494 9.56737 37.4617 8.84835 37.4474C7.63834 37.4227 6.42834 37.3652 5.21833 37.3508C4.79309 37.3467 4.62463 37.1988 4.61436 36.7674C4.57327 35.167 4.50137 33.5647 4.45617 31.9643C4.44179 31.4138 4.80336 31.1714 5.28407 31.4425C5.61482 31.6295 5.88599 31.9315 6.16744 32.2006C6.78579 32.7922 7.27473 32.7573 7.79036 32.0691C8.56279 31.0378 8.46213 28.9362 7.59315 27.9769C7.11654 27.451 6.71389 27.453 6.23934 27.9933C6.04212 28.2172 5.90448 28.5213 5.66618 28.6692C5.40322 28.8335 5.05399 28.9178 4.74789 28.9095C4.65955 28.9075 4.5178 28.4596 4.51575 28.2152C4.49726 26.7628 4.42125 25.3021 4.54657 23.86C4.63079 22.9109 4.30005 22.0213 4.40893 21.0743C4.51575 20.1416 4.43152 19.1864 4.43152 18.2414L4.28977 18.1551C4.10077 18.3317 3.8974 18.4961 3.72689 18.6892C2.786 19.7513 1.59243 19.6609 0.986399 18.3811C0.292033 16.9143 0.326957 15.4043 1.22265 14.0094C1.86771 13.0028 2.9524 13.0192 3.6632 13.9766C3.83371 14.2087 4.02066 14.4285 4.19938 14.6545C4.2528 14.6401 4.30621 14.6278 4.36168 14.6134C4.38427 14.3915 4.42741 14.1676 4.42331 13.9457C4.3966 12.6043 4.3514 11.2648 4.32881 9.92335C4.31648 9.13448 4.51164 8.92289 5.31283 8.91878C7.25007 8.91056 9.18731 8.92289 11.1266 8.93521C11.5847 8.93932 11.7963 9.24953 11.5765 9.69326C11.4101 10.0302 11.1204 10.3157 10.8493 10.591C10.122 11.3326 10.1878 11.8811 11.0937 12.4029C12.1456 13.009 13.9328 12.9062 14.8676 12.1872C15.5455 11.6634 15.5537 11.1909 14.8758 10.6588C14.4629 10.3342 14.0314 10.0343 14.013 9.43031C14.0027 9.08929 14.1136 8.91056 14.4896 8.91262C16.4823 8.92289 18.477 8.9044 20.4697 8.92494C21.31 8.93316 21.6161 9.31116 21.5914 10.174C21.5565 11.4025 21.5236 12.633 21.4928 13.8615C21.4887 14.0608 21.4928 14.2601 21.4928 14.4573L21.6325 14.5415C21.8051 14.3504 21.9982 14.1738 22.1481 13.9663C22.9596 12.8528 24.1141 12.8939 24.7715 14.1019C25.4741 15.3899 25.5255 16.7499 24.9667 18.0934C24.3832 19.4925 23.1773 19.6671 22.1707 18.5598C21.992 18.3626 21.7804 18.1982 21.5832 18.0174L21.4147 18.0811V23.0054C23.3479 23.0054 25.3878 22.9992 27.4278 23.0156C27.6414 23.0156 27.9948 23.104 28.0359 23.2293C28.1098 23.4594 28.0749 23.7983 27.9475 24.0058C27.7462 24.3304 27.4257 24.581 27.1628 24.8707C26.7108 25.372 26.7437 25.828 27.2573 26.2615C28.3111 27.151 30.6058 27.0586 31.5693 26.0848C31.9822 25.6678 31.9802 25.2877 31.5467 24.881C31.3577 24.7043 31.103 24.5831 30.9489 24.3797C30.7558 24.1229 30.5832 23.825 30.497 23.519C30.4107 23.2108 30.5524 22.9951 30.9427 22.9971C32.956 23.0074 34.9672 22.9889 36.9804 23.0095C37.8063 23.0177 38.0959 23.3813 38.0754 24.2811C38.0508 25.4356 38.0097 26.5902 37.9789 27.7447C37.9727 27.9645 37.9789 28.1864 38.0877 28.5007C38.2644 28.3179 38.4616 28.1494 38.6136 27.9481C39.4949 26.7812 40.6988 26.8655 41.3233 28.1905C41.9951 29.6162 42.0547 31.0789 41.2206 32.4676C40.6392 33.4352 39.6018 33.5071 38.8252 32.7059C38.7081 32.5847 38.6034 32.4533 38.4822 32.3382C38.3507 32.215 38.2069 32.1081 37.9604 31.9048C37.9398 32.2191 37.9193 32.4081 37.9152 32.5971C37.8802 33.8256 37.8618 35.0561 37.8125 36.2846C37.7857 36.9687 37.5495 37.283 36.8798 37.3118C34.9076 37.3981 32.9334 37.433 30.9612 37.4556C30.4949 37.4617 30.4887 37.0488 30.6284 36.7633C30.7866 36.4407 31.0475 36.1531 31.3084 35.8984C32.085 35.1444 32.0192 34.5343 31.0763 34.0063C30.0347 33.4229 28.2249 33.5544 27.3045 34.2775C26.6779 34.7706 26.682 35.2061 27.2758 35.7423C27.6003 36.034 27.9414 36.3421 28.1509 36.7119C28.3091 36.9913 28.3091 37.4227 27.7811 37.4268C25.7699 37.4391 23.7546 37.4946 21.7455 37.4145C20.5704 37.3672 19.4138 37.5583 18.2367 37.47C17.0534 37.3816 15.8598 37.4515 14.6703 37.4515C14.6375 37.5069 14.6067 37.5624 14.5738 37.6158H14.5717ZM14.6621 22.9746C14.7813 23.0321 14.8285 23.0732 14.8758 23.0732C16.7 23.0814 18.5263 23.0917 20.3506 23.0875C20.7471 23.0875 20.9484 22.8718 20.9443 22.4466C20.932 21.0127 20.9299 19.5787 20.9443 18.1448C20.9443 17.9455 21.0224 17.6025 21.1271 17.5758C21.3695 17.5141 21.69 17.5347 21.9037 17.6538C22.1851 17.812 22.3988 18.0934 22.6371 18.3276C23.278 18.9563 23.8717 18.9193 24.3134 18.1304C24.9913 16.9204 24.9708 15.6611 24.3052 14.4552C23.7731 13.4938 23.2143 13.5082 22.5179 14.3689C22.2858 14.6565 21.9632 14.9318 21.6243 15.0571C21.0922 15.2523 20.9217 15.0859 20.9299 14.5168C20.9525 13.0829 20.9874 11.651 21.0203 10.2171C21.0347 9.60493 20.934 9.48988 20.328 9.48783C18.5407 9.48167 16.7514 9.48372 14.9641 9.48783C14.847 9.48783 14.732 9.52686 14.4711 9.57206C14.7566 9.82063 14.9353 9.99936 15.1367 10.1473C16.2625 10.9895 16.2049 12.1482 14.9559 12.8097C13.6637 13.4938 12.2996 13.5287 10.9623 12.9597C9.61256 12.3844 9.45027 11.1847 10.5247 10.1822C10.724 9.99731 10.8904 9.77749 11.1697 9.46523C10.7568 9.46523 10.535 9.46523 10.3131 9.46523C8.7292 9.45701 7.14736 9.46112 5.56552 9.43647C4.8013 9.42414 4.8013 9.41182 4.80747 10.1904C4.81979 11.6613 4.83212 13.1322 4.81157 14.6031C4.80952 14.8045 4.65545 15.129 4.50753 15.1701C4.30005 15.2276 3.98573 15.1373 3.80495 14.9955C3.53172 14.7819 3.34683 14.4614 3.10648 14.2046C2.66685 13.7341 2.26831 13.7383 1.82046 14.2005C0.910389 15.1393 0.819998 17.3559 1.64995 18.3728C2.1471 18.983 2.62987 19.0035 3.20714 18.4509C3.4742 18.1941 3.72278 17.9044 4.02887 17.7052C4.55889 17.3621 4.93278 17.5819 4.93689 18.2044C4.94716 19.5644 4.95332 20.9243 4.95538 22.2822C4.95538 22.7794 5.13821 23.0218 5.68467 23.0177C7.21104 23.0095 8.73741 23.0485 10.2658 23.067C10.537 23.0711 10.8102 23.067 11.0814 23.067C11.102 23.0156 11.1246 22.9643 11.1451 22.9129C10.8883 22.6582 10.6336 22.3993 10.3727 22.1508C9.64338 21.4564 9.69063 20.5093 10.4898 19.893C11.5971 19.0384 14.0314 19.0241 15.1511 19.8663C16.0858 20.5689 16.1166 21.7235 15.223 22.4938C15.0483 22.6459 14.8696 22.7938 14.6601 22.9725L14.6621 22.9746ZM31.1091 36.8352C31.14 36.9091 31.1728 36.9851 31.2036 37.0591C33.0094 37.0591 34.8152 37.0591 36.6189 37.057C36.7483 37.057 36.8777 37.0324 37.0051 37.0036C37.3851 36.9214 37.5762 36.6955 37.5618 36.2908C37.5207 35.1362 37.4694 33.9817 37.4653 32.8292C37.4653 32.3937 37.4406 31.7137 37.681 31.5699C38.2521 31.2289 38.6301 31.8287 39.006 32.2026C39.7682 32.9627 40.4338 32.9093 40.9063 31.9438C41.4897 30.7523 41.463 29.5156 40.7666 28.3651C40.216 27.4571 39.7209 27.4653 39.0368 28.2809C38.815 28.5459 38.5705 28.8376 38.2726 28.9814C37.683 29.267 37.3975 29.0574 37.4098 28.4124C37.4344 27.0709 37.4755 25.7315 37.5125 24.39C37.531 23.6792 37.4386 23.5724 36.7298 23.5703C34.9795 23.5662 33.2272 23.5683 31.4769 23.5703C31.3577 23.5703 31.2406 23.5991 30.9366 23.6402C31.3043 23.9463 31.5508 24.1476 31.7953 24.3551C32.6869 25.1111 32.6766 26.1156 31.6987 26.7237C30.2997 27.5968 28.7939 27.6625 27.3209 26.9559C26.0534 26.3478 25.961 25.2076 27.0025 24.2626C27.2059 24.0777 27.3723 23.8538 27.5572 23.6484C27.5264 23.5991 27.4956 23.5498 27.4668 23.5025C25.7371 23.5025 24.0052 23.5046 22.2755 23.5025C21.5236 23.5025 21.4106 23.6011 21.4045 24.3653C21.3901 25.7068 21.388 27.0483 21.3736 28.3898C21.3675 29.0636 21.0943 29.2608 20.4656 29.002C20.2232 28.9013 20.0239 28.6774 19.8267 28.4884C19.6542 28.322 19.5206 28.1145 19.3522 27.9419C19.0173 27.5948 18.6763 27.6174 18.325 27.9337C17.3143 28.8438 17.1664 31.2453 18.062 32.2766C18.553 32.8415 18.9886 32.8641 19.5371 32.3526C19.8226 32.0876 20.0815 31.7794 20.404 31.572C20.9258 31.2391 21.2997 31.4631 21.3038 32.0712C21.31 33.4311 21.3058 34.7911 21.31 36.1511C21.31 36.7961 21.4599 36.9523 22.0844 36.9687C23.7423 37.0098 25.3981 37.0468 27.0559 37.0817C27.247 37.0858 27.436 37.0632 27.627 37.0529L27.7113 36.8763C27.4463 36.6421 27.1874 36.3996 26.9162 36.1737C26.0185 35.4259 26.0534 34.4172 27.0066 33.7496C28.1591 32.9422 30.3388 32.8847 31.5406 33.6325C32.5739 34.2755 32.6602 35.3869 31.748 36.188C31.52 36.3873 31.3228 36.6215 31.1112 36.8393L31.1091 36.8352ZM4.91635 28.3466C4.95332 28.3816 4.9903 28.4165 5.02728 28.4514C5.22655 28.2542 5.45458 28.0796 5.62098 27.8598C6.52078 26.6724 7.72463 26.7545 8.37585 28.096C8.99215 29.3676 9.03324 30.6906 8.47035 31.991C7.88486 33.3387 6.67486 33.5154 5.69289 32.4389C5.51005 32.2376 5.28818 32.0712 5.08686 31.8883C5.02934 31.9212 4.96976 31.9561 4.91224 31.989V36.9769C6.91316 36.9769 8.93874 36.9708 10.9643 36.9851C11.1615 36.9851 11.4923 37.0632 11.5251 37.1762C11.5909 37.396 11.5642 37.7083 11.445 37.9055C11.2786 38.1849 10.9951 38.3944 10.7609 38.6348C10.1878 39.2182 10.2268 39.6866 10.8904 40.1426C11.934 40.8596 14.0438 40.7528 15.0114 39.9331C15.4962 39.5222 15.5023 39.1483 15.0134 38.7293C14.8018 38.5485 14.4896 38.4355 14.3642 38.2136C14.1855 37.8973 14.1383 37.509 14.0355 37.1495C14.2882 37.0878 14.5389 36.9749 14.7915 36.9728C16.5809 36.9564 18.3681 36.9646 20.1575 36.9646C20.5355 36.9646 20.8929 36.9297 20.8847 36.4202C20.8601 35.0048 20.8313 33.5893 20.7984 32.1739C20.7984 32.1307 20.743 32.0896 20.6649 31.9787C20.4245 32.2129 20.1924 32.4163 19.9849 32.6443C19.1837 33.5297 18.1607 33.4681 17.5094 32.4697C16.9404 31.5987 16.8479 30.6249 16.9753 29.6224C17.0698 28.8726 17.2876 28.1597 17.8258 27.5968C18.4277 26.9702 19.1817 26.962 19.7959 27.5701C19.9787 27.7529 20.1102 27.9892 20.2951 28.1679C20.4471 28.3138 20.6485 28.4103 20.9114 28.5849C20.9114 27.1223 20.9073 25.8198 20.9114 24.5153C20.9155 23.6977 20.858 23.6525 20.0363 23.6504C18.1915 23.6463 16.3487 23.6258 14.5039 23.6052C14.0294 23.5991 13.8691 23.3977 14.091 22.9766C14.2656 22.6438 14.5574 22.3583 14.8429 22.1035C15.49 21.5262 15.5167 20.912 14.8758 20.3512C13.9082 19.5027 11.6361 19.5335 10.6952 20.4087C10.233 20.838 10.196 21.2941 10.6007 21.783C10.8369 22.0686 11.1369 22.311 11.332 22.6233C11.4532 22.8184 11.519 23.1348 11.445 23.3361C11.3957 23.4696 11.0588 23.56 10.8472 23.5621C9.09692 23.5785 7.34457 23.5888 5.59428 23.5621C5.11151 23.5539 4.96565 23.7552 4.95949 24.1784C4.94922 24.8296 4.92251 25.4829 4.91635 26.1341C4.90813 26.8716 4.91635 27.6112 4.91635 28.3508V28.3466Z" fill="#235957"/>
<path d="M14.5717 37.6158C14.7546 37.7781 14.9271 37.9568 15.1243 38.0986C16.246 38.9039 16.2255 39.9228 15.0257 40.6069C13.6658 41.3814 12.2277 41.3711 10.8349 40.7405C9.60845 40.1858 9.49135 39.1073 10.4713 38.2116C10.6808 38.0205 10.8657 37.8028 11.0629 37.5973C11.0444 37.548 11.0239 37.4987 11.0054 37.4494C10.2864 37.4494 9.56737 37.4617 8.84835 37.4474C7.63834 37.4227 6.42834 37.3652 5.21833 37.3508C4.79309 37.3467 4.62463 37.1988 4.61436 36.7674C4.57327 35.167 4.50137 33.5647 4.45617 31.9643C4.44179 31.4138 4.80336 31.1714 5.28407 31.4425C5.61482 31.6295 5.88599 31.9315 6.16744 32.2006C6.78579 32.7922 7.27473 32.7573 7.79036 32.0691C8.56279 31.0378 8.46213 28.9362 7.59315 27.9769C7.11654 27.451 6.71389 27.453 6.23934 27.9933C6.04212 28.2172 5.90448 28.5213 5.66618 28.6692C5.40322 28.8335 5.05399 28.9178 4.74789 28.9095C4.65955 28.9075 4.5178 28.4596 4.51575 28.2152C4.49726 26.7628 4.42125 25.3021 4.54657 23.86C4.63079 22.9109 4.30005 22.0213 4.40893 21.0743C4.51575 20.1416 4.43152 19.1864 4.43152 18.2414L4.28977 18.1551C4.10077 18.3317 3.8974 18.4961 3.72689 18.6892C2.786 19.7513 1.59243 19.6609 0.986399 18.3811C0.292033 16.9143 0.326957 15.4043 1.22265 14.0094C1.86771 13.0028 2.9524 13.0192 3.6632 13.9766C3.83371 14.2087 4.02066 14.4285 4.19938 14.6545C4.2528 14.6401 4.30621 14.6278 4.36168 14.6134C4.38427 14.3915 4.42741 14.1676 4.42331 13.9457C4.3966 12.6043 4.3514 11.2648 4.32881 9.92335C4.31648 9.13448 4.51164 8.92289 5.31283 8.91878C7.25007 8.91056 9.18731 8.92289 11.1266 8.93521C11.5847 8.93932 11.7963 9.24953 11.5765 9.69326C11.4101 10.0302 11.1204 10.3157 10.8493 10.591C10.122 11.3326 10.1878 11.8811 11.0937 12.4029C12.1456 13.009 13.9328 12.9062 14.8676 12.1872C15.5455 11.6634 15.5537 11.1909 14.8758 10.6588C14.4629 10.3342 14.0314 10.0343 14.013 9.43031C14.0027 9.08929 14.1136 8.91056 14.4896 8.91262C16.4823 8.92289 18.477 8.9044 20.4697 8.92494C21.31 8.93316 21.6161 9.31116 21.5914 10.174C21.5565 11.4025 21.5236 12.633 21.4928 13.8615C21.4887 14.0608 21.4928 14.2601 21.4928 14.4573L21.6325 14.5415C21.8051 14.3504 21.9982 14.1738 22.1481 13.9663C22.9596 12.8528 24.1141 12.8939 24.7715 14.1019C25.4741 15.3899 25.5255 16.7499 24.9667 18.0934C24.3832 19.4925 23.1773 19.6671 22.1707 18.5598C21.992 18.3626 21.7804 18.1982 21.5832 18.0174L21.4147 18.0811V23.0054C23.3479 23.0054 25.3878 22.9992 27.4278 23.0156C27.6414 23.0156 27.9948 23.104 28.0359 23.2293C28.1098 23.4594 28.0749 23.7983 27.9475 24.0058C27.7462 24.3304 27.4257 24.581 27.1628 24.8707C26.7108 25.372 26.7437 25.828 27.2573 26.2615C28.3111 27.151 30.6058 27.0586 31.5693 26.0848C31.9822 25.6678 31.9802 25.2877 31.5467 24.881C31.3577 24.7043 31.103 24.5831 30.9489 24.3797C30.7558 24.1229 30.5832 23.825 30.497 23.519C30.4107 23.2108 30.5524 22.9951 30.9427 22.9971C32.956 23.0074 34.9672 22.9889 36.9804 23.0095C37.8063 23.0177 38.0959 23.3813 38.0754 24.2811C38.0508 25.4356 38.0097 26.5902 37.9789 27.7447C37.9727 27.9645 37.9789 28.1864 38.0877 28.5007C38.2644 28.3179 38.4616 28.1494 38.6136 27.9481C39.4949 26.7812 40.6988 26.8655 41.3233 28.1905C41.9951 29.6162 42.0547 31.0789 41.2206 32.4676C40.6392 33.4352 39.6018 33.5071 38.8252 32.7059C38.7081 32.5847 38.6034 32.4533 38.4822 32.3382C38.3507 32.215 38.2069 32.1081 37.9604 31.9048C37.9398 32.2191 37.9193 32.4081 37.9152 32.5971C37.8802 33.8256 37.8618 35.0561 37.8125 36.2846C37.7857 36.9687 37.5495 37.283 36.8798 37.3118C34.9076 37.3981 32.9334 37.433 30.9612 37.4556C30.4949 37.4617 30.4887 37.0488 30.6284 36.7633C30.7866 36.4407 31.0475 36.1531 31.3084 35.8984C32.085 35.1444 32.0192 34.5343 31.0763 34.0063C30.0347 33.4229 28.2249 33.5544 27.3045 34.2775C26.6779 34.7706 26.682 35.2061 27.2758 35.7423C27.6003 36.034 27.9414 36.3421 28.1509 36.7119C28.3091 36.9913 28.3091 37.4227 27.7811 37.4268C25.7699 37.4391 23.7546 37.4946 21.7455 37.4145C20.5704 37.3672 19.4138 37.5583 18.2367 37.47C17.0534 37.3816 15.8598 37.4515 14.6703 37.4515C14.6375 37.5069 14.6067 37.5624 14.5738 37.6158H14.5717ZM14.6621 22.9746C14.7813 23.0321 14.8285 23.0732 14.8758 23.0732C16.7 23.0814 18.5263 23.0917 20.3506 23.0875C20.7471 23.0875 20.9484 22.8718 20.9443 22.4466C20.932 21.0127 20.9299 19.5787 20.9443 18.1448C20.9443 17.9455 21.0224 17.6025 21.1271 17.5758C21.3695 17.5141 21.69 17.5347 21.9037 17.6538C22.1851 17.812 22.3988 18.0934 22.6371 18.3276C23.278 18.9563 23.8717 18.9193 24.3134 18.1304C24.9913 16.9204 24.9708 15.6611 24.3052 14.4552C23.7731 13.4938 23.2143 13.5082 22.5179 14.3689C22.2858 14.6565 21.9632 14.9318 21.6243 15.0571C21.0922 15.2523 20.9217 15.0859 20.9299 14.5168C20.9525 13.0829 20.9874 11.651 21.0203 10.2171C21.0347 9.60493 20.934 9.48988 20.328 9.48783C18.5407 9.48167 16.7514 9.48372 14.9641 9.48783C14.847 9.48783 14.732 9.52686 14.4711 9.57206C14.7566 9.82063 14.9353 9.99936 15.1367 10.1473C16.2625 10.9895 16.2049 12.1482 14.9559 12.8097C13.6637 13.4938 12.2996 13.5287 10.9623 12.9597C9.61256 12.3844 9.45027 11.1847 10.5247 10.1822C10.724 9.99731 10.8904 9.77749 11.1697 9.46523C10.7568 9.46523 10.535 9.46523 10.3131 9.46523C8.7292 9.45701 7.14736 9.46112 5.56552 9.43647C4.8013 9.42414 4.8013 9.41182 4.80747 10.1904C4.81979 11.6613 4.83212 13.1322 4.81157 14.6031C4.80952 14.8045 4.65545 15.129 4.50753 15.1701C4.30005 15.2276 3.98573 15.1373 3.80495 14.9955C3.53172 14.7819 3.34683 14.4614 3.10648 14.2046C2.66685 13.7341 2.26831 13.7383 1.82046 14.2005C0.910389 15.1393 0.819998 17.3559 1.64995 18.3728C2.1471 18.983 2.62987 19.0035 3.20714 18.4509C3.4742 18.1941 3.72278 17.9044 4.02887 17.7052C4.55889 17.3621 4.93278 17.5819 4.93689 18.2044C4.94716 19.5644 4.95332 20.9243 4.95538 22.2822C4.95538 22.7794 5.13821 23.0218 5.68467 23.0177C7.21104 23.0095 8.73741 23.0485 10.2658 23.067C10.537 23.0711 10.8102 23.067 11.0814 23.067C11.102 23.0156 11.1246 22.9643 11.1451 22.9129C10.8883 22.6582 10.6336 22.3993 10.3727 22.1508C9.64338 21.4564 9.69063 20.5093 10.4898 19.893C11.5971 19.0384 14.0314 19.0241 15.1511 19.8663C16.0858 20.5689 16.1166 21.7235 15.223 22.4938C15.0483 22.6459 14.8696 22.7938 14.6601 22.9725L14.6621 22.9746ZM31.1091 36.8352C31.14 36.9091 31.1728 36.9851 31.2036 37.0591C33.0094 37.0591 34.8152 37.0591 36.6189 37.057C36.7483 37.057 36.8777 37.0324 37.0051 37.0036C37.3851 36.9214 37.5762 36.6955 37.5618 36.2908C37.5207 35.1362 37.4694 33.9817 37.4653 32.8292C37.4653 32.3937 37.4406 31.7137 37.681 31.5699C38.2521 31.2289 38.6301 31.8287 39.006 32.2026C39.7682 32.9627 40.4338 32.9093 40.9063 31.9438C41.4897 30.7523 41.463 29.5156 40.7666 28.3651C40.216 27.4571 39.7209 27.4653 39.0368 28.2809C38.815 28.5459 38.5705 28.8376 38.2726 28.9814C37.683 29.267 37.3975 29.0574 37.4098 28.4124C37.4344 27.0709 37.4755 25.7315 37.5125 24.39C37.531 23.6792 37.4386 23.5724 36.7298 23.5703C34.9795 23.5662 33.2272 23.5683 31.4769 23.5703C31.3577 23.5703 31.2406 23.5991 30.9366 23.6402C31.3043 23.9463 31.5508 24.1476 31.7953 24.3551C32.6869 25.1111 32.6766 26.1156 31.6987 26.7237C30.2997 27.5968 28.7939 27.6625 27.3209 26.9559C26.0534 26.3478 25.961 25.2076 27.0025 24.2626C27.2059 24.0777 27.3723 23.8538 27.5572 23.6484C27.5264 23.5991 27.4956 23.5498 27.4668 23.5025C25.7371 23.5025 24.0052 23.5046 22.2755 23.5025C21.5236 23.5025 21.4106 23.6011 21.4045 24.3653C21.3901 25.7068 21.388 27.0483 21.3736 28.3898C21.3675 29.0636 21.0943 29.2608 20.4656 29.002C20.2232 28.9013 20.0239 28.6774 19.8267 28.4884C19.6542 28.322 19.5206 28.1145 19.3522 27.9419C19.0173 27.5948 18.6763 27.6174 18.325 27.9337C17.3143 28.8438 17.1664 31.2453 18.062 32.2766C18.553 32.8415 18.9886 32.8641 19.5371 32.3526C19.8226 32.0876 20.0815 31.7794 20.404 31.572C20.9258 31.2391 21.2997 31.4631 21.3038 32.0712C21.31 33.4311 21.3058 34.7911 21.31 36.1511C21.31 36.7961 21.4599 36.9523 22.0844 36.9687C23.7423 37.0098 25.3981 37.0468 27.0559 37.0817C27.247 37.0858 27.436 37.0632 27.627 37.0529L27.7113 36.8763C27.4463 36.6421 27.1874 36.3996 26.9162 36.1737C26.0185 35.4259 26.0534 34.4172 27.0066 33.7496C28.1591 32.9422 30.3388 32.8847 31.5406 33.6325C32.5739 34.2755 32.6602 35.3869 31.748 36.188C31.52 36.3873 31.3228 36.6215 31.1112 36.8393L31.1091 36.8352ZM4.91635 28.3466C4.95332 28.3816 4.9903 28.4165 5.02728 28.4514C5.22655 28.2542 5.45458 28.0796 5.62098 27.8598C6.52078 26.6724 7.72463 26.7545 8.37585 28.096C8.99215 29.3676 9.03324 30.6906 8.47035 31.991C7.88486 33.3387 6.67486 33.5154 5.69289 32.4389C5.51005 32.2376 5.28818 32.0712 5.08686 31.8883C5.02934 31.9212 4.96976 31.9561 4.91224 31.989V36.9769C6.91316 36.9769 8.93874 36.9708 10.9643 36.9851C11.1615 36.9851 11.4923 37.0632 11.5251 37.1762C11.5909 37.396 11.5642 37.7083 11.445 37.9055C11.2786 38.1849 10.9951 38.3944 10.7609 38.6348C10.1878 39.2182 10.2268 39.6866 10.8904 40.1426C11.934 40.8596 14.0438 40.7528 15.0114 39.9331C15.4962 39.5222 15.5023 39.1483 15.0134 38.7293C14.8018 38.5485 14.4896 38.4355 14.3642 38.2136C14.1855 37.8973 14.1383 37.509 14.0355 37.1495C14.2882 37.0878 14.5389 36.9749 14.7915 36.9728C16.5809 36.9564 18.3681 36.9646 20.1575 36.9646C20.5355 36.9646 20.8929 36.9297 20.8847 36.4202C20.8601 35.0048 20.8313 33.5893 20.7984 32.1739C20.7984 32.1307 20.743 32.0896 20.6649 31.9787C20.4245 32.2129 20.1924 32.4163 19.9849 32.6443C19.1837 33.5297 18.1607 33.4681 17.5094 32.4697C16.9404 31.5987 16.8479 30.6249 16.9753 29.6224C17.0698 28.8726 17.2876 28.1597 17.8258 27.5968C18.4277 26.9702 19.1817 26.962 19.7959 27.5701C19.9787 27.7529 20.1102 27.9892 20.2951 28.1679C20.4471 28.3138 20.6485 28.4103 20.9114 28.5849C20.9114 27.1223 20.9073 25.8198 20.9114 24.5153C20.9155 23.6977 20.858 23.6525 20.0363 23.6504C18.1915 23.6463 16.3487 23.6258 14.5039 23.6052C14.0294 23.5991 13.8691 23.3977 14.091 22.9766C14.2656 22.6438 14.5574 22.3583 14.8429 22.1035C15.49 21.5262 15.5167 20.912 14.8758 20.3512C13.9082 19.5027 11.6361 19.5335 10.6952 20.4087C10.233 20.838 10.196 21.2941 10.6007 21.783C10.8369 22.0686 11.1369 22.311 11.332 22.6233C11.4532 22.8184 11.519 23.1348 11.445 23.3361C11.3957 23.4696 11.0588 23.56 10.8472 23.5621C9.09692 23.5785 7.34457 23.5888 5.59428 23.5621C5.11151 23.5539 4.96565 23.7552 4.95949 24.1784C4.94922 24.8296 4.92251 25.4829 4.91635 26.1341C4.90813 26.8716 4.91635 27.6112 4.91635 28.3508V28.3466Z" stroke="#235957" stroke-width="0.6" mask="url(#path-1-outside-1_1756_1158)"/>
<path d="M30.674 10.3158C31.8532 9.80425 32.8229 8.02314 32.6133 6.75356M30.674 10.3158L30.6146 10.1781C31.1636 9.93981 31.6792 9.39667 32.0327 8.74722C32.3863 8.09768 32.5629 7.36931 32.4653 6.77799L32.4653 6.77795C32.4078 6.4289 32.2906 6.24658 32.1433 6.16374C31.9931 6.07922 31.7638 6.07074 31.4175 6.18518C31.4024 6.19019 31.3873 6.19524 31.372 6.20031C30.9938 6.32599 30.5585 6.47062 30.1379 6.45354L30.1378 6.45353C29.8408 6.44125 29.5979 6.33822 29.4968 6.11389C29.3995 5.89803 29.4663 5.63721 29.6168 5.38636C30.3627 4.14121 31.1128 2.89782 31.8733 1.66046L32.6133 6.75356M30.674 10.3158C29.9078 10.6465 29.425 10.4123 29.2052 9.59676M30.674 10.3158L30.6143 10.1782M32.6133 6.75356C32.4921 6.01811 32.0915 5.80446 31.3705 6.04276L32.6133 6.75356ZM29.2052 9.59676L30.6143 10.1782M29.2052 9.59676L29.35 9.55773C29.35 9.55781 29.3501 9.55789 29.3501 9.55798M29.2052 9.59676C29.1792 9.499 29.1581 9.39862 29.1369 9.29833C29.0879 9.06566 29.039 8.83344 28.9299 8.63533C28.8108 8.42168 28.554 8.23474 28.3177 8.15667C28.2171 8.1238 27.9644 8.37032 27.8658 8.54083M29.2052 9.59676L29.3502 9.55823C29.3501 9.55814 29.3501 9.55806 29.3501 9.55798M29.2052 9.59676L30.6143 10.1782M30.6143 10.1782C30.2495 10.3356 29.9877 10.3428 29.8005 10.2514C29.613 10.1597 29.455 9.9471 29.3501 9.55798M27.8658 8.54083L27.7362 8.46523M27.8658 8.54083L27.7359 8.46574C27.736 8.46557 27.7361 8.4654 27.7362 8.46523M27.8658 8.54083C27.1344 9.79398 26.4154 11.0553 25.7067 12.3229C25.2814 13.083 25.38 13.4178 26.136 13.8801C26.8654 14.3254 27.5961 14.7683 28.3267 15.2111C28.9171 15.5689 29.5073 15.9267 30.0968 16.2857M27.7362 8.46523C27.7951 8.36368 27.8938 8.24768 27.9909 8.16072C28.0398 8.117 28.0938 8.07557 28.1475 8.04671C28.1744 8.03225 28.2056 8.0186 28.2392 8.01072C28.2721 8.00299 28.3169 7.99861 28.3643 8.01408L28.3648 8.01425C28.6288 8.1015 28.9198 8.3092 29.0609 8.56227L29.0613 8.56297C29.1494 8.72286 29.2003 8.89797 29.2398 9.06641C29.2569 9.13948 29.2713 9.20796 29.2853 9.27451C29.3054 9.37037 29.3246 9.46221 29.3501 9.55798M27.7362 8.46523C27.0044 9.71925 26.2849 10.9814 25.5757 12.2497M25.5757 12.2497L39.296 1.12535C40.0521 1.05149 40.9225 1.31273 41.6713 1.75207C42.4201 2.19139 43.0717 2.82316 43.3739 3.51769C43.6377 4.12383 43.6231 4.71636 43.3608 5.18491C43.0984 5.65353 42.6015 5.97456 41.948 6.06401L41.9474 6.06409C41.8239 6.08048 41.7032 6.10287 41.5405 6.13329C41.641 6.207 41.7198 6.26345 41.8054 6.31458C42.7324 6.86644 43.6612 7.4164 44.5901 7.96645C45.0546 8.24148 45.5191 8.51653 45.9835 8.79186C46.4477 9.06667 46.7545 9.34837 46.8445 9.7103C46.9345 10.0727 46.7943 10.4636 46.5088 10.921C45.8749 11.939 45.2359 12.9553 44.5982 13.9696C44.5331 14.0732 44.4679 14.1768 44.4028 14.2804L44.4027 14.2805C44.3167 14.4169 44.2318 14.531 44.1432 14.6156C44.0541 14.7007 43.9531 14.7637 43.8356 14.7815C43.599 14.8175 43.3856 14.6604 43.1765 14.4369M25.5757 12.2497C25.3612 12.6331 25.2505 12.9545 25.3339 13.2535C25.4168 13.5504 25.6779 13.7758 26.0578 14.008L26.0578 14.0081C26.7871 14.4534 27.5185 14.8966 28.2495 15.3397C28.8399 15.6976 29.4301 16.0553 30.0188 16.4138L30.0968 16.2857M25.5757 12.2497L30.6053 16.6099C30.5588 16.58 30.5156 16.5521 30.475 16.5259C30.3271 16.4304 30.2132 16.3568 30.0968 16.2857M30.0968 16.2857L30.0186 16.4137C30.1335 16.4839 30.245 16.5559 30.3914 16.6505C30.3966 16.6538 30.4017 16.6571 30.4069 16.6605C30.3934 16.664 30.38 16.6674 30.3667 16.6708C30.1496 16.7267 29.9827 16.7697 29.8105 16.8018C29.14 16.9264 28.6467 17.2482 28.4282 17.7139C28.2082 18.1829 28.2873 18.7531 28.6672 19.3267C29.6004 20.7371 30.9495 21.5447 32.6965 21.4852L32.6966 21.4852C33.3442 21.4626 33.8274 21.2402 34.0718 20.8302C34.3145 20.4231 34.2926 19.8794 34.042 19.279C33.9751 19.1168 33.9228 18.9534 33.8577 18.7503C33.8504 18.7274 33.8429 18.704 33.8352 18.68C33.8966 18.7061 33.9341 18.7236 33.9677 18.7437C34.4827 19.0569 34.997 19.3716 35.5113 19.6864C36.3145 20.178 37.118 20.6697 37.9245 21.1556L37.9247 21.1557C38.2469 21.349 38.5828 21.5298 38.9355 21.6734M38.9355 21.6734C38.9354 21.6734 38.9353 21.6733 38.9351 21.6733L38.9921 21.5345L38.9355 21.6734ZM38.9355 21.6734C39.1398 21.7572 39.3415 21.7827 39.533 21.717C39.7234 21.6516 39.8779 21.5048 40.0069 21.2973L40.0071 21.2971C40.4457 20.5879 40.8952 19.8913 41.3458 19.193C41.7008 18.6429 42.0565 18.0916 42.408 17.5324L42.4084 17.5318C42.4786 17.419 42.5529 17.2528 42.6019 17.1098C42.6264 17.0384 42.6469 16.9662 42.6566 16.9052C42.6613 16.8754 42.6647 16.8408 42.6617 16.807C42.6594 16.7817 42.6503 16.712 42.5875 16.666C42.3304 16.4774 41.978 16.2972 41.6339 16.2878L41.6339 16.2878C41.4222 16.282 41.2148 16.3261 41.0222 16.3734C40.9826 16.3832 40.9437 16.393 40.9055 16.4026C40.752 16.4414 40.6081 16.4778 40.4625 16.4964M40.4625 16.4964C40.1705 16.5333 39.9678 16.4835 39.8279 16.376C39.6868 16.2677 39.583 16.0805 39.5322 15.7876M40.4625 16.4964L40.4814 16.6452L40.4626 16.4964C40.4626 16.4964 40.4625 16.4964 40.4625 16.4964ZM39.5322 15.7876C39.422 15.15 39.6676 14.3576 40.1201 13.6796C40.5727 13.0013 41.2075 12.4745 41.8324 12.3379L41.8325 12.3379C42.0385 12.2926 42.1939 12.3116 42.3081 12.373C42.4208 12.4337 42.5157 12.5477 42.5779 12.7387M39.5322 15.7876L39.3844 15.8132L39.5322 15.7876C39.5322 15.7876 39.5322 15.7876 39.5322 15.7876ZM42.5779 12.7387C42.6148 12.854 42.6304 12.9787 42.6482 13.1207L42.6484 13.1219C42.6655 13.2591 42.6849 13.4133 42.7347 13.5604L42.7348 13.5607L42.7391 13.5733C42.8342 13.8528 42.9519 14.1987 43.1765 14.4369M42.5779 12.7387C42.578 12.7388 42.578 12.7389 42.578 12.7391L42.7207 12.6926M42.5779 12.7387C42.5779 12.7386 42.5779 12.7385 42.5778 12.7384L42.7207 12.6926M43.1765 14.4369L43.2856 14.3341L43.1761 14.4366C43.1762 14.4367 43.1763 14.4368 43.1765 14.4369ZM43.263 12.5016C43.3077 12.6482 43.3275 12.8031 43.3472 12.9581C43.3629 13.0811 43.3786 13.2042 43.4068 13.3233C43.4407 13.4617 43.4935 13.5956 43.5603 13.7653C43.5753 13.8034 43.5911 13.8434 43.6074 13.8856L43.6719 13.784C43.6837 13.7655 43.6954 13.747 43.7071 13.7285M43.263 12.5016L45.8844 10.5746C45.2171 11.6291 44.5479 12.6835 43.8001 13.8619L43.7746 13.9021C43.7504 13.8386 43.7279 13.7813 43.7071 13.7285M43.263 12.5016C43.0453 11.7908 42.4762 11.4642 41.749 11.5997L43.263 12.5016ZM43.7071 13.7285C43.703 13.7181 43.699 13.7079 43.695 13.6978C43.6313 13.5362 43.5842 13.4168 43.5527 13.2884C43.5265 13.1776 43.5119 13.063 43.496 12.9391C43.494 12.9232 43.4919 12.9071 43.4898 12.8909C43.4719 12.752 43.4506 12.6026 43.4065 12.4579L43.4064 12.4577C43.2885 12.0726 43.0711 11.7797 42.7732 11.6041C42.4759 11.4287 42.1136 11.3792 41.7215 11.4523L41.7213 11.4523C40.8243 11.621 39.9738 12.3521 39.4021 13.233C38.8306 14.1138 38.5103 15.187 38.7251 16.0725C38.8354 16.528 39.0717 16.8787 39.4166 17.0904C39.7604 17.3015 40.1941 17.3636 40.6801 17.2777L40.6802 17.2777C40.9405 17.2316 41.1998 17.1763 41.5008 17.1121C41.5662 17.0982 41.6337 17.0838 41.7035 17.069M43.7071 13.7285C44.4414 12.5715 45.1004 11.5329 45.7576 10.4944L45.7577 10.4943C45.8597 10.3335 45.9285 10.2168 45.9682 10.1241C46.0075 10.0322 46.0096 9.98312 46.0021 9.95115C45.9945 9.91903 45.9704 9.87555 45.8935 9.80989C45.8161 9.74375 45.7016 9.66871 45.5373 9.56879L45.5373 9.56877C44.8701 9.16279 44.2018 8.75765 43.5335 8.35246C42.6098 7.79252 41.6861 7.23248 40.7648 6.66998L40.7648 6.66993C40.6422 6.59495 40.5402 6.51535 40.4665 6.42958C40.3925 6.34343 40.3408 6.24337 40.3357 6.13116C40.3254 5.90135 40.508 5.72585 40.7443 5.59187M38.5689 3.96172C38.5667 4.10085 38.5367 4.25559 38.4829 4.39748L38.4859 4.4099L38.5689 3.96172ZM38.5689 3.96172L38.7188 3.96455C38.7223 3.78006 38.684 3.60049 38.6415 3.43432C38.6291 3.3858 38.6165 3.33897 38.6042 3.29323C38.5728 3.17643 38.5433 3.06672 38.5235 2.95413C38.4652 2.61748 38.5171 2.37897 38.6406 2.21801C38.7645 2.05652 38.9837 1.94303 39.3244 1.90656L39.3244 1.90656C39.9126 1.84344 40.6287 2.05782 41.2631 2.44288C41.8972 2.82782 42.4229 3.36715 42.6473 3.92334L42.6473 3.92344C42.7906 4.27778 42.77 4.57005 42.6395 4.78806C42.5074 5.00862 42.2446 5.18386 41.8416 5.26278M38.5689 3.96172L38.7188 3.96402C38.7143 4.25815 38.599 4.62445 38.3832 4.84021C38.3142 4.90925 38.2162 4.91505 38.1586 4.91374C38.0902 4.91218 38.0143 4.89809 37.9418 4.87892C37.7965 4.84059 37.6361 4.77431 37.5237 4.70641L37.5231 4.70605C36.7275 4.22036 35.9352 3.72332 35.1435 3.22661C34.53 2.84178 33.9169 2.45716 33.3029 2.07817L33.3029 2.07816C33.1444 1.98036 33.0259 1.91593 32.931 1.87992C32.8374 1.84443 32.7802 1.84185 32.7387 1.85173C32.6971 1.86161 32.6483 1.88939 32.5823 1.96109C32.5153 2.03396 32.4409 2.14059 32.3458 2.29142C32.0503 2.76005 31.754 3.2264 31.4579 3.69243C31.1059 4.24644 30.7542 4.79998 30.4046 5.35631L30.4045 5.35636C30.3708 5.41003 30.3426 5.46979 30.3137 5.53703C30.3053 5.55662 30.2965 5.57761 30.2874 5.59933C30.2834 5.60889 30.2794 5.61859 30.2752 5.62838C30.3457 5.60955 30.4154 5.59157 30.4844 5.57378C30.7171 5.51374 30.9417 5.45578 31.1621 5.3742C31.6942 5.17638 32.1742 5.16605 32.5579 5.37392C32.9422 5.58207 33.1933 5.98914 33.3107 6.54594L33.3107 6.54609C33.4646 7.2796 33.282 8.15675 32.8988 8.94079C32.515 9.72602 31.9189 10.4408 31.2169 10.8425L31.2169 10.8425C30.597 11.197 29.9955 11.2669 29.5055 11.0411C29.0155 10.8153 28.6785 10.3129 28.5463 9.61237C28.513 9.43812 28.4674 9.27071 28.4093 9.05739C28.4011 9.0271 28.3926 8.99587 28.3839 8.96357M28.3839 8.96357C28.1911 9.26542 28.0022 9.56053 27.8165 9.85059C27.18 10.8451 26.5814 11.7802 25.9965 12.7244L25.9963 12.7247C25.9357 12.8219 25.917 12.8937 25.9162 12.9456C25.9153 12.9954 25.9306 13.0399 25.9628 13.0853C26.0351 13.1872 26.176 13.274 26.3557 13.3756L26.3562 13.3759C27.8908 14.251 29.426 15.1286 30.9531 16.0206L30.9535 16.0208C31.0534 16.0796 31.1747 16.1757 31.2678 16.2687C31.3141 16.3151 31.3588 16.3659 31.3906 16.4156C31.4063 16.4402 31.4225 16.4701 31.4326 16.503C31.4421 16.534 31.4512 16.5844 31.4307 16.6385M28.3839 8.96357L31.2903 16.5856M28.3839 8.96357L41.8416 5.26278M31.4307 16.6385C31.4305 16.6391 31.4303 16.6396 31.4301 16.6402L31.2903 16.5856M31.4307 16.6385C31.4308 16.6383 31.4309 16.638 31.431 16.6378L31.2903 16.5856M31.4307 16.6385C31.3353 16.8954 31.1313 17.2016 30.8664 17.334C30.6863 17.4241 30.4915 17.4734 30.3062 17.5132C30.2566 17.5238 30.2081 17.5337 30.1605 17.5434C30.0249 17.5711 29.8965 17.5973 29.7708 17.635M31.2903 16.5856C31.202 16.8239 31.0171 17.091 30.7994 17.1999C30.5962 17.3014 30.3665 17.3483 30.1359 17.3953C29.9981 17.4234 29.86 17.4516 29.727 17.4916L29.7709 17.635C29.7709 17.635 29.7708 17.635 29.7708 17.635M29.7708 17.635C29.472 17.7266 29.3132 17.854 29.2434 17.9995C29.1733 18.1453 29.1735 18.3496 29.2855 18.6393L29.2855 18.6393C29.4965 19.1858 30.05 19.7313 30.7206 20.1192C31.391 20.5069 32.1433 20.7167 32.7288 20.6302C33.0784 20.578 33.2518 20.4687 33.325 20.3358C33.3995 20.2008 33.4016 19.9861 33.2688 19.646C33.2436 19.5823 33.2147 19.5174 33.1841 19.4487L33.1819 19.4437C33.1509 19.3741 33.1183 19.3007 33.0894 19.2266C33.0321 19.0799 32.9831 18.9161 32.9894 18.7474L32.9894 18.747C33.0033 18.3978 33.1774 18.0474 33.3549 17.777L33.3562 17.775L33.3562 17.775C33.3834 17.7351 33.4205 17.7175 33.4435 17.7098C33.4671 17.7019 33.489 17.6997 33.5046 17.6991C33.5359 17.698 33.5684 17.7023 33.5965 17.7074C33.6545 17.7181 33.7247 17.7384 33.7954 17.7626C33.9366 17.8109 34.1029 17.8826 34.2163 17.9502C34.924 18.3707 35.6233 18.7947 36.322 19.2183C37.1161 19.6998 37.9093 20.1808 38.7129 20.6555C38.8847 20.7569 39.0064 20.8248 39.1014 20.8636C39.1959 20.9022 39.2418 20.9024 39.2696 20.8951C39.2979 20.8877 39.338 20.8644 39.4025 20.7854C39.4671 20.7062 39.5407 20.5911 39.6432 20.4262C39.9032 20.0073 40.1636 19.5892 40.4239 19.1713C40.7834 18.5942 41.1427 18.0174 41.5002 17.4394L41.5006 17.4388C41.5629 17.3391 41.6157 17.2377 41.6901 17.0947C41.6945 17.0863 41.6989 17.0777 41.7035 17.069M29.7708 17.635L41.7035 17.069M41.7035 17.069L40.7444 5.5918C40.7443 5.59182 40.7443 5.59185 40.7443 5.59187M40.7443 5.59187C41.0573 5.41362 41.4344 5.34111 41.7677 5.27702C41.7926 5.27224 41.8172 5.26751 41.8416 5.26278M40.7443 5.59187L41.8416 5.26278M42.7207 12.6926C42.7619 12.8214 42.779 12.9581 42.7961 13.0947C42.8139 13.237 42.8317 13.3792 42.8768 13.5123L42.7207 12.6926ZM38.1027 4.10324C38.0857 4.03148 38.0691 3.96027 38.0526 3.88946C37.9976 3.65321 37.9437 3.42143 37.878 3.18896L37.8779 3.18832C37.725 2.63769 37.773 2.14628 38.0281 1.77449C38.2833 1.4027 38.7248 1.18065 39.2959 1.12535L38.1027 4.10324ZM38.1027 4.10324C37.8938 3.97785 37.6849 3.85276 37.4759 3.72769C37.0839 3.49297 36.6919 3.25832 36.3004 3.02187C35.9777 2.8269 35.6555 2.62833 35.3326 2.42934C34.7042 2.04209 34.0732 1.65325 33.4315 1.28619L33.4314 1.28616C33.0994 1.09641 32.8082 1.00321 32.5376 1.06995C32.2659 1.13697 32.0616 1.35366 31.8734 1.66038L38.1027 4.10324ZM38.0019 21.0271C37.1956 20.5414 36.3932 20.0503 35.5904 19.559C35.0759 19.2441 34.5612 18.9291 34.0452 18.6153C33.989 18.5816 33.9282 18.5562 33.8309 18.5156C33.8132 18.5082 33.7943 18.5003 33.774 18.4917L38.0019 21.0271ZM33.6526 18.6032C33.6738 18.6681 33.6935 18.7295 33.7122 18.7881C33.7789 18.9961 33.8343 19.1688 33.9035 19.3364L33.6526 18.6032Z" fill="#235957" stroke="#235957" stroke-width="0.3"/>
<path d="M20.3567 13.4794C20.3567 12.6721 20.3341 11.8627 20.3629 11.0574C20.3937 10.2356 20.3197 10.1124 19.4857 10.0939C18.6701 10.0754 17.8545 10.0898 17.041 9.96446C18.0333 9.96446 19.0276 9.93775 20.0178 9.98911C20.2047 9.99938 20.519 10.3116 20.5272 10.4965C20.5786 11.4929 20.5519 12.4913 20.5519 13.4897C20.4861 13.4876 20.4204 13.4835 20.3567 13.4815V13.4794Z" fill="#235957"/>
<path d="M9.91227 22.4364C9.26721 22.3932 8.90564 21.9105 8.83579 21.1319C8.74951 20.1807 9.39663 19.32 10.5039 19.0447C9.83831 19.4761 9.32062 19.889 9.146 20.5978C8.95905 21.364 9.40895 21.8817 9.91227 22.4364Z" fill="#235957"/>
<path d="M23.4756 14.2314C24.4925 15.1744 24.5418 17.504 23.5701 18.1717C24.1165 16.8466 24.3138 15.5873 23.4756 14.2314Z" fill="#235957"/>
<path d="M12.7988 13.7835C14.3108 13.4836 15.7632 13.4137 16.3138 11.7354C16.6261 13.1323 14.4259 13.9869 12.7988 13.7835Z" fill="#235957"/>
<path d="M20.5092 19.0467C20.5092 20.1273 20.5297 21.0908 20.4928 22.0522C20.4846 22.2453 20.2545 22.4282 20.0449 22.5679C20.7701 21.4914 20.1949 20.265 20.5092 19.0447V19.0467Z" fill="#235957"/>
<path d="M9.66639 10.3913H6.28906C7.34499 10.0605 9.42398 10.1776 9.66639 10.3913Z" fill="#235957"/>
<path d="M2.55371 14.8672C3.40421 14.9761 3.38161 16.1861 4.22183 16.3566C3.79453 16.4675 3.56034 16.2189 3.34052 15.9087C3.08989 15.5554 2.81872 15.2164 2.55371 14.8672Z" fill="#235957"/>
<path d="M26.2889 36.4119C25.6048 36.3605 25.2432 35.8634 25.1898 35.054C25.122 34.0371 25.8718 33.1681 27.1887 32.8784C26.3977 33.2749 25.7917 33.6673 25.5431 34.413C25.2699 35.2286 25.7116 35.8182 26.2909 36.4119H26.2889Z" fill="#235957"/>
<path d="M33.5381 24.0489C34.4646 24.0489 35.3911 24.0572 36.3197 24.0448C36.8209 24.0387 37.0715 24.2153 37.051 24.7618C37.0202 25.5897 37.0428 26.4217 37.0428 27.2517C36.9709 27.2517 36.8969 27.2517 36.825 27.2517C36.825 26.5326 36.8189 25.8136 36.825 25.0946C36.8353 24.2729 36.8312 24.2544 35.9951 24.2441C35.1795 24.2318 34.3619 24.2421 33.5463 24.2421L33.5381 24.0489Z" fill="#235957"/>
<path d="M36.541 32.0342C36.8882 33.7701 36.7649 36.2004 36.541 36.412V32.0342Z" fill="#235957"/>
<path d="M33.1197 26.1782C33.3519 27.5772 31.4372 28.4668 29.6191 28.3065C31.0572 27.9737 32.5507 27.9634 33.1197 26.1782Z" fill="#235957"/>
<path d="M40.3465 28.5901C40.7306 29.5597 40.9032 30.5417 40.3567 31.499C40.0815 31.9797 39.7445 32.0393 39.3994 31.8072C39.6398 31.6716 39.9911 31.5833 40.1534 31.3573C40.3341 31.1067 40.3711 30.7348 40.4163 30.4102C40.4574 30.1 40.4389 29.7816 40.4245 29.4673C40.4122 29.1735 40.3732 28.8818 40.3465 28.5901Z" fill="#235957"/>
<path d="M22.3149 24.0244H26.3372C26.3372 24.0511 26.3372 24.0778 26.3372 24.1045H22.3066C22.3087 24.0778 22.3128 24.0511 22.3149 24.0244Z" fill="#235957"/>
<path d="M18.6934 31.9382C19.1843 31.5253 19.5911 31.1822 19.9979 30.8391C19.6116 31.2192 19.5192 31.9546 18.6934 31.9382Z" fill="#235957"/>
<path d="M20.3132 27.3873C20.3132 26.6478 20.3276 25.9103 20.3091 25.1707C20.2906 24.3428 20.2208 24.2791 19.4093 24.275C18.4438 24.2688 17.4782 24.275 16.5127 24.275C16.5127 24.2175 16.5127 24.162 16.5127 24.1045C17.622 24.1045 18.7293 24.1045 19.8387 24.1045C20.2762 24.1045 20.5002 24.3469 20.5063 24.7578C20.5228 25.6288 20.5104 26.4978 20.5104 27.3688L20.3132 27.3873Z" fill="#235957"/>
<path d="M12.7051 40.026C12.9413 39.9356 13.1837 39.8617 13.4118 39.7528C14.0671 39.4405 14.1164 39.0522 13.5679 38.6023C12.9906 38.1298 12.8407 37.7518 13.0399 37.0801C12.9947 37.8751 13.5679 38.2367 14.0425 38.6845C14.404 39.0235 14.3136 39.5453 13.8452 39.8021C13.5165 39.9808 13.1242 40.0445 12.7626 40.1616C12.7441 40.1164 12.7256 40.0712 12.7071 40.026H12.7051Z" fill="#235957"/>
<path d="M9.69762 31.5283C9.23745 33.6587 8.13632 34.6879 6.95508 34.0223C7.7008 34.1332 8.35408 33.9422 8.75468 33.3402C9.12446 32.7835 9.38125 32.1487 9.69556 31.5283H9.69762Z" fill="#235957"/>
<path d="M20.1563 33.4088C20.1563 34.2963 20.181 35.1858 20.1337 36.0712C20.1255 36.2356 19.8359 36.3835 19.5996 36.4862C20.37 35.5309 19.7804 34.4031 20.1543 33.4067L20.1563 33.4088Z" fill="#235957"/>
<path d="M12.951 20.3223C13.3064 20.4332 13.7029 20.4804 14.009 20.6715C14.5226 20.9879 14.5801 21.5487 14.198 22.015C13.9474 22.3232 13.6557 22.5964 13.3804 22.8861C13.3373 22.8491 13.2941 22.8142 13.253 22.7772C13.3927 22.6046 13.516 22.4136 13.6783 22.2636C13.9988 21.9678 14.348 21.6781 14.196 21.181C14.0378 20.6674 13.5653 20.6078 13.1236 20.5318C13.0538 20.5195 12.9839 20.5133 12.9141 20.503C12.9264 20.4435 12.9387 20.3818 12.951 20.3223Z" fill="#235957"/>
<path d="M5.78011 24.2659H10.1908C10.1908 24.2926 10.1908 24.3172 10.1908 24.3439H5.76367L5.78011 24.2659Z" fill="#235957"/>
<path d="M44.1259 11.9088C44.2902 11.6582 44.4545 11.4055 44.6209 11.157C45.0257 10.5509 44.9969 10.3208 44.397 9.92847C43.4644 9.31627 42.5173 8.72873 41.5785 8.12476C41.3936 8.00561 41.221 7.86591 41.0957 7.64404C41.5333 7.87207 41.9832 8.07751 42.4023 8.3343C43.1644 8.79858 43.9143 9.2834 44.6579 9.77644C45.2742 10.1853 45.3317 10.5037 44.9209 11.122C44.7175 11.4281 44.4977 11.7219 44.284 12.0198L44.1238 11.9109L44.1259 11.9088Z" fill="#235957"/>
<path d="M30.0762 12.0123C32.036 11.4946 33.1166 10.26 33.6774 8.51172C34.1684 9.70118 31.7998 12.1109 30.0762 12.0123Z" fill="#235957"/>
<path d="M40.4256 18.0022C40.0599 18.6349 39.7086 19.2779 39.3244 19.9004C39.1108 20.2455 38.778 20.1859 38.4883 20.0092C37.6666 19.508 36.8572 18.9862 36.0889 18.3699C36.1854 18.4089 36.2881 18.4336 36.3744 18.487C36.9907 18.867 37.6009 19.2553 38.2151 19.6374C38.8232 20.0154 39.0512 19.9743 39.4415 19.3683C39.7415 18.902 40.0106 18.4151 40.292 17.9385C40.3352 17.959 40.3783 17.9816 40.4215 18.0022H40.4256Z" fill="#235957"/>
<path d="M32.343 17.3574C32.4786 17.8936 32.5957 18.3825 32.7292 18.8694C32.8628 19.3625 32.6635 19.6768 32.154 19.7199C31.5624 19.7692 31.0324 19.6234 30.6133 19.1447C30.9913 19.2659 31.3631 19.4302 31.7514 19.4919C31.9753 19.5289 32.2999 19.4734 32.4396 19.3275C32.5444 19.2166 32.4868 18.8612 32.3903 18.6722C32.1602 18.2264 32.1212 17.8114 32.3471 17.3574H32.343Z" fill="#235957"/>
<path d="M32.877 2.33057C34.4382 2.9366 35.7099 4.01923 37.115 4.88616L37.039 5.01148C35.6524 4.11784 34.2657 3.2242 32.879 2.33057H32.877Z" fill="#235957"/>
<path d="M40.7062 5.0008C41.0739 4.8611 41.5484 4.8118 41.7744 4.5509C41.9593 4.33725 41.8504 3.8668 41.9347 3.46826C41.9922 3.81339 42.1853 4.20988 42.0785 4.49338C41.8566 5.08913 41.2321 5.01518 40.7041 5.0008H40.7062Z" fill="#235957"/>
</g>
<defs>
<clipPath id="clip0_1756_1158">
<rect width="47" height="41" fill="white"/>
</clipPath>
</defs>
</svg>
