<svg width="39" height="39" viewBox="0 0 39 39" fill="none" xmlns="http://www.w3.org/2000/svg">
<path fill-rule="evenodd" clip-rule="evenodd" d="M31.4978 9.19731C31.7702 9.31307 32.3939 9.94254 32.143 10.4345C31.8921 10.9265 27.1251 15.7163 27.1251 15.7163C27.1251 15.7163 27.6914 21.9821 27.6699 23.2193C27.6484 24.4565 26.9531 25.2596 25.8993 25.086C25.2456 24.9783 22.986 23.6619 21.3032 22.6815L21.3031 22.6815L21.3031 22.6815C20.2734 22.0816 19.4597 21.6076 19.3617 21.6131C19.2133 21.6214 17.5644 22.5317 15.924 23.4374L15.9239 23.4374L15.9239 23.4374C14.7117 24.1067 13.5042 24.7733 12.9102 25.0715C11.5124 25.7733 10.7095 26.0121 10.2651 25.1294C9.82062 24.2467 11.4335 17.0838 11.4335 17.0838C11.4335 17.0838 7.39054 13.1405 6.76689 12.4894C6.14324 11.8382 5.64145 10.8831 6.14324 10.6227C6.64502 10.3622 13.4765 8.26395 13.4765 8.26395C13.4765 8.26395 16.5159 2.41061 16.903 1.7522C17.2901 1.09379 17.8707 0.138728 18.7883 0.203845C19.7058 0.268963 23.1036 4.79825 23.7703 5.72437C24.437 6.65049 25.3904 7.75025 25.3904 7.75025C25.3904 7.75025 31.2254 9.08154 31.4978 9.19731ZM17.0751 12.7426C17.1787 12.0301 17.7056 11.4552 18.4013 11.2955C18.6163 11.2232 18.8457 11.5632 18.731 11.7586C18.6855 11.8361 18.5882 11.8976 18.4726 11.9707C18.2965 12.082 18.0781 12.2201 17.9353 12.4821C17.8317 12.6722 17.7845 12.8054 17.7527 12.8951C17.7119 13.0103 17.6965 13.0537 17.6199 13.0537C17.4837 13.0537 17.0751 12.8945 17.0751 12.7426ZM12.5013 35.0996C12.374 33.1971 12.3429 31.2893 12.4081 29.3837V29.3692C12.5013 29.1739 13.1249 29.3475 13.2253 29.4994C13.2962 31.3976 13.2699 33.2982 13.1464 35.1936C12.9301 35.2807 12.6843 35.2449 12.5013 35.0996ZM6.27949 18.6249C5.83824 18.0245 5.4474 17.388 5.11104 16.722C5.03219 16.5628 4.46588 16.4615 4.17198 16.6207C3.97658 16.7265 3.52768 17.8238 3.22556 18.5623C3.07327 18.9346 2.95828 19.2157 2.93185 19.2326C2.89781 19.2545 2.48303 19.3708 2.00356 19.5051L2.00348 19.5052C1.3723 19.6821 0.629026 19.8904 0.494596 19.9562C0.235032 20.1286 0.158743 20.4783 0.322554 20.7448C0.92666 21.5024 1.57034 22.227 2.25085 22.9154C2.25085 22.9154 1.64871 25.2524 1.6272 25.7661C1.60915 26.1972 2.21201 26.2054 2.52924 26.2097H2.52927H2.52931H2.52934H2.52937H2.52941H2.52944H2.52947H2.5295H2.52954H2.52957H2.5296H2.52964H2.52967H2.5297H2.52974H2.52977H2.5298C2.59035 26.2105 2.64045 26.2112 2.67379 26.2147C3.48447 25.8056 4.26539 25.3389 5.01068 24.8183C5.01068 24.8183 7.09668 25.8819 7.36908 25.9615C7.76854 25.9688 8.13773 25.7474 8.32248 25.3899C8.35832 25.1149 7.56263 22.3221 7.56263 22.3221C8.2732 21.7159 8.94817 21.0685 9.58411 20.3831C9.82067 20.0068 9.50526 19.4931 9.25437 19.2616C9.10961 19.128 8.2131 18.9824 7.43923 18.8567C6.87188 18.7645 6.37046 18.683 6.27949 18.6249ZM6.90435 23.6433C6.73079 22.9901 6.5479 22.3017 6.56599 22.1629C6.58856 22.0186 7.17949 21.5118 7.73613 21.0344C8.24039 20.602 8.71651 20.1937 8.71651 20.1008C8.71651 19.9697 7.51288 19.767 6.66228 19.6238L6.66226 19.6238L6.66208 19.6237C6.24499 19.5535 5.91283 19.4975 5.84915 19.4713C5.75558 19.4329 5.50114 18.9919 5.2414 18.5417C4.96389 18.0607 4.68032 17.5692 4.58035 17.5468C4.42624 17.5122 4.02218 18.95 3.84582 19.5777L3.8458 19.5777L3.84577 19.5778C3.80066 19.7383 3.77045 19.8458 3.76315 19.862C3.74826 19.8951 3.36329 19.9782 2.91271 20.0754C2.27894 20.2121 1.51535 20.3768 1.46927 20.4698C1.41046 20.5885 2.41603 21.5119 2.95499 22.0069C3.13876 22.1756 3.26829 22.2946 3.28287 22.3148C3.31087 22.3537 3.19193 22.9461 3.06953 23.5557C2.94121 24.1949 2.80908 24.853 2.83843 24.9123C3.57669 24.6037 4.29495 24.2484 4.98895 23.8487C5.21792 23.7591 6.04394 24.2567 6.61712 24.602L6.61715 24.602L6.61719 24.6021L6.61722 24.6021L6.61728 24.6021L6.6173 24.6021C6.92331 24.7865 7.15721 24.9274 7.18964 24.9123C7.23578 24.8908 7.07456 24.284 6.90435 23.6433ZM8.76712 17.3659C8.85974 16.5483 8.82832 15.7212 8.67393 14.9132C8.53773 14.754 7.89258 14.9566 7.89258 15.0724C7.89258 15.3256 7.89258 17.2429 7.97143 17.3515C8.23143 17.4224 8.50476 17.4274 8.76712 17.3659ZM18.6162 38.0661C18.4216 36.9644 18.4022 35.8385 18.5589 34.7306V34.6945C18.6449 34.5932 19.2757 34.5136 19.3331 34.7668C19.4189 35.8649 19.4189 36.968 19.3331 38.0661C19.1969 38.2036 18.7739 38.2832 18.6162 38.0661ZM7.08954 27.6979C7.0114 29.2825 7.03774 30.8705 7.16839 32.4515C7.40574 32.5458 7.67386 32.516 7.88523 32.3719C8.10028 32.1983 7.92107 27.9295 7.88523 27.792C7.84939 27.6545 7.19707 27.5605 7.11105 27.6618L7.08954 27.6979ZM4.602 33.7249C4.44429 33.5874 4.44429 27.2855 4.44429 27.0323L4.4658 26.9961C4.4658 26.8369 5.23282 26.8442 5.3045 27.1046C5.37618 27.3651 5.49805 33.5151 5.37618 33.6526C5.14917 33.8138 4.85448 33.8413 4.602 33.7249ZM38.2363 24.6953C38.2363 24.3415 36.1577 23.9557 35.4085 23.8167C35.2843 23.7937 35.1967 23.7774 35.161 23.7692C35.0624 23.7464 34.8574 23.3681 34.6132 22.9173C34.2361 22.2214 33.7654 21.3526 33.4478 21.3526C32.9245 21.3526 31.713 23.9862 31.6772 24.0803C31.6572 24.1326 30.8839 24.413 30.1604 24.6754L30.1604 24.6754L30.1603 24.6754C29.5826 24.8849 29.0367 25.0828 28.9317 25.1439C28.4801 25.3971 28.817 25.8674 28.9317 26.0266C28.9951 26.1146 29.5828 26.5325 30.0953 26.897L30.0954 26.8971L30.0954 26.8971C30.5094 27.1915 30.8743 27.451 30.8743 27.4736C30.8743 27.4823 30.8607 27.5666 30.8389 27.7016L30.8388 27.7022L30.8387 27.703L30.8386 27.7033L30.8386 27.7034L30.8386 27.7034C30.7327 28.3594 30.4355 30.2 30.5661 30.3678C30.9532 30.838 31.9066 30.6861 32.2793 30.4835C32.4707 30.3795 32.7584 30.0409 33.0242 29.7282L33.0242 29.7282C33.2761 29.4318 33.5082 29.1587 33.6198 29.1305C33.7563 29.0961 34.4261 29.6793 34.9959 30.1755L34.996 30.1755C35.3835 30.513 35.7247 30.8101 35.8205 30.8453C36.0571 30.9321 36.7381 30.6282 36.8528 30.2158C36.9366 29.9142 36.6257 28.7072 36.4525 28.035L36.4524 28.035C36.3888 27.788 36.3438 27.6133 36.3438 27.5822C36.3438 27.5427 36.5657 27.2422 36.8575 26.8469C37.4212 26.0836 38.2457 24.967 38.2363 24.6953ZM35.5479 28.0558C35.4535 27.6408 35.3694 27.2708 35.3694 27.1481L35.3335 27.1409C35.3212 26.9673 35.8515 26.4609 36.3153 26.018L36.3153 26.018C36.6634 25.6856 36.974 25.3889 36.9894 25.2959C37.0096 25.1739 36.3824 25.0565 35.7591 24.9398C35.2731 24.8489 34.7894 24.7583 34.6167 24.6664C34.3888 24.5451 34.0748 23.8536 33.8157 23.2831L33.8157 23.283C33.6265 22.8663 33.4665 22.5141 33.3909 22.4958C33.2599 22.4641 32.7997 23.5299 32.5082 24.2048L32.5082 24.2048C32.4009 24.4534 32.3164 24.6489 32.2798 24.717C32.1968 24.8713 31.3775 25.0818 30.7268 25.2491L30.7268 25.2491L30.7267 25.2491C30.3089 25.3565 29.9606 25.446 29.9214 25.4912C29.857 25.5655 30.7169 26.1287 31.3563 26.5474L31.3563 26.5474C31.7131 26.781 32.0012 26.9697 32.0217 27.0034C32.0449 27.0415 31.9529 27.4938 31.8457 28.0209L31.8457 28.0209L31.8457 28.0209L31.8457 28.021L31.8457 28.0211C31.6882 28.7954 31.4978 29.7313 31.5916 29.7528C31.6831 29.7738 32.2372 29.2621 32.7328 28.8043L32.733 28.8042C33.0921 28.4726 33.4205 28.1693 33.5199 28.1176C33.6456 28.0523 34.2307 28.4976 34.7751 28.9119C35.2554 29.2775 35.704 29.6189 35.778 29.5647C35.8749 29.4935 35.6984 28.7174 35.5479 28.0558ZM29.842 15.1881C29.739 16.8756 29.7606 18.5686 29.9065 20.2528C30.1465 20.3909 30.4408 20.3909 30.6807 20.2528C30.7999 18.5667 30.7999 16.8742 30.6807 15.1881C30.6234 15.0507 29.9352 15.0217 29.842 15.1881ZM30.8237 36.0692C30.683 34.9222 30.6446 33.7647 30.709 32.6107C30.8022 32.4588 31.4259 32.4371 31.4259 32.589C31.5394 33.7453 31.5777 34.9079 31.5406 36.0692C31.3095 36.1569 31.0548 36.1569 30.8237 36.0692ZM24.0495 27.1915C23.7771 26.7573 20.9384 27.1119 20.9384 27.1119C20.9384 27.1119 19.8058 24.9413 19.2467 24.8906C18.6875 24.84 17.5477 27.3868 17.5477 27.3868C16.6096 27.5244 15.6807 27.7201 14.7664 27.9729C14.0066 28.2478 14.3363 28.7832 14.6087 29.0943C14.8811 29.4055 16.5585 31.0985 16.5585 31.0985C16.2668 31.7905 16.0131 32.4982 15.7987 33.2185C15.6051 33.9854 15.6983 34.3182 15.9922 34.5353C16.2861 34.7523 16.9241 34.5787 17.2753 34.3978C17.9845 33.8003 18.6549 33.1574 19.2825 32.4732C20.0936 33.1825 20.9642 33.8192 21.8846 34.3761C22.1536 34.5803 22.5061 34.6349 22.8233 34.5213C23.1405 34.4078 23.3802 34.1414 23.4617 33.8117C23.1847 32.6491 22.8473 31.5019 22.4509 30.375C22.4509 30.375 24.3362 27.6183 24.0638 27.1915H24.0495ZM22.3156 33.5948C22.1353 32.5081 21.8741 31.4366 21.5343 30.3895C21.4887 30.3017 21.965 29.535 22.3669 28.888L22.3669 28.888L22.367 28.8879L22.3671 28.8877C22.6606 28.4152 22.9144 28.0065 22.8963 27.9729C22.8715 27.9271 22.1131 27.9461 21.4187 27.9635H21.4187H21.4186C20.9084 27.9763 20.433 27.9883 20.3085 27.9729C20.1439 27.9527 19.8827 27.3335 19.6544 26.7924C19.4751 26.3673 19.3161 25.9905 19.2404 25.9905C18.8245 26.6508 18.4854 27.3573 18.2297 28.0959C18.2297 28.12 17.7838 28.1918 17.2592 28.2762L17.259 28.2762L17.259 28.2762L17.2589 28.2762L17.2588 28.2762L17.2588 28.2762L17.2587 28.2762L17.2585 28.2763C16.5228 28.3946 15.6323 28.5379 15.5989 28.6097C15.5653 28.6817 16.245 29.4166 16.8182 30.0364L16.8182 30.0364L16.8184 30.0366C17.2237 30.4748 17.5756 30.8553 17.5845 30.9032C17.5917 30.9419 17.4855 31.2438 17.3489 31.6326L17.3489 31.6326C17.076 32.4092 16.6813 33.5321 16.8246 33.5948C16.9406 33.6455 17.6134 33.0101 18.2446 32.4139L18.2447 32.4138L18.2448 32.4137L18.2448 32.4137C18.7838 31.9046 19.2924 31.4242 19.3981 31.4242C19.5176 31.4242 20.2713 32.0289 20.9832 32.6002L20.9832 32.6002C21.6379 33.1255 22.2573 33.6225 22.3156 33.5948ZM33.3903 31.5326C33.3099 33.1218 33.3338 34.7147 33.462 36.3007C33.699 36.4457 33.992 36.4619 34.2434 36.3441C34.317 34.7519 34.2835 33.1564 34.143 31.5688C34.0713 31.3952 33.4405 31.482 33.3903 31.5326ZM21.455 21.2368C20.8053 20.8095 20.1302 20.4229 19.4335 20.0792C19.2077 20.0247 18.0771 20.6898 17.3872 21.0957L17.3872 21.0957L17.387 21.0958C17.0698 21.2824 16.8457 21.4142 16.8457 21.396C16.8457 21.3381 16.9246 17.6988 17.4479 17.2864C17.7743 17.032 17.9498 17.0363 18.4421 17.0483C18.566 17.0513 18.71 17.0548 18.8816 17.0548C19.5728 16.983 20.2711 17.0695 20.9245 17.3081C21.3331 17.5613 21.4335 18.0316 21.4693 19.4135C21.5028 20.021 21.498 20.63 21.455 21.2368ZM21.3765 14.3633C21.4553 14.262 20.8747 13.5384 20.7385 13.4227V13.3937C20.6023 13.2997 20.9751 12.9162 21.1113 12.9741C21.2475 13.032 21.6561 13.6976 21.6561 13.6976C21.8941 13.0986 21.9269 12.4365 21.7492 11.8165C21.4052 11.0712 20.2152 10.543 19.1471 10.5937C15.9285 10.7673 15.8066 13.6036 16.9966 14.9349C18.1698 16.2474 19.113 15.8439 19.2699 15.7768L19.2761 15.7742C19.3717 15.7335 19.0263 15.2977 18.7794 14.9862L18.7794 14.9862L18.7793 14.986C18.6743 14.8536 18.5871 14.7436 18.5593 14.6961C18.4661 14.5369 18.9894 14.356 19.183 14.3994C19.3125 14.4285 19.6574 14.8759 19.9013 15.1924L19.9013 15.1924L19.9014 15.1925C20.0218 15.3487 20.1175 15.4729 20.1507 15.4992C20.2307 15.5627 20.3973 15.4099 20.5197 15.2977L20.5197 15.2977C20.5508 15.2692 20.5791 15.2433 20.6023 15.2243C20.6821 15.1589 20.2625 14.6419 19.9803 14.2943C19.8568 14.1421 19.7596 14.0223 19.7421 13.987C19.6847 13.8713 20.1937 13.4806 20.3084 13.5384C20.6157 13.8805 20.903 14.2405 21.1686 14.6165C21.2441 14.5375 21.3136 14.4529 21.3765 14.3633ZM26.4083 23.2193C26.3151 23.6317 26.2362 23.8922 25.5553 23.5521C24.8743 23.2121 22.4012 21.6926 22.4012 21.6926C22.4012 21.6926 22.5732 18.2125 22.1503 17.4455C21.7574 16.9059 21.2092 16.5016 20.5804 16.2879C20.5804 16.2879 22.8599 15.3256 22.7309 13.0103C22.6019 10.695 20.9818 9.49395 18.5302 9.82677C16.0786 10.1596 15.1611 12.0625 15.3761 13.5964C15.5912 15.1302 17.4048 16.3892 17.4048 16.3892C16.5856 16.6668 16.0173 17.4211 15.9711 18.2921C15.8084 19.51 15.77 20.7417 15.8564 21.9676C15.8564 21.9676 13.541 23.2989 12.8027 23.6534C12.5835 23.7586 12.4117 23.8479 12.2761 23.9185C11.9547 24.0855 11.836 24.1472 11.7704 24.0658C11.7307 24.0164 11.9338 22.7066 12.1675 21.2001L12.1675 21.2C12.4813 19.1773 12.8501 16.8 12.7597 16.6424C12.6882 16.5178 11.6222 15.4652 10.4795 14.3368L10.4795 14.3368L10.4794 14.3368C9.10155 12.9763 7.6121 11.5055 7.61994 11.4185C7.65363 11.1593 10.0196 10.5406 11.9939 10.0243C13.3808 9.66159 14.5744 9.34945 14.6306 9.24795C14.658 9.1985 14.8221 8.85529 15.0692 8.33839L15.0692 8.33831L15.0692 8.33825C16.0515 6.28343 18.3456 1.48449 18.5804 1.48449C18.743 1.48449 20.4588 3.69878 21.9996 5.68723L21.9996 5.68724C23.244 7.29317 24.3743 8.75179 24.48 8.77765C24.7165 8.83554 30.3939 10.2247 30.3366 10.4273C30.3113 10.5165 29.4068 11.4693 28.3984 12.5316L28.3984 12.5317C27.1177 13.8808 25.6693 15.4065 25.6413 15.5644C25.6185 15.6923 25.7889 17.1926 25.9753 18.8331L25.9753 18.8333C26.1998 20.8098 26.4475 22.99 26.4083 23.2193ZM25.4982 36.5395C25.4193 36.431 25.4193 30.0784 25.4193 29.9192H25.3906C25.405 29.8034 26.1648 29.5647 26.2508 29.8251C26.3504 32.0624 26.3384 34.3034 26.215 36.5395C25.9843 36.6292 25.7288 36.6292 25.4982 36.5395Z" fill="#235957"/>
</svg>
