<svg width="27" height="22" viewBox="0 0 27 22" fill="none" xmlns="http://www.w3.org/2000/svg">
<path d="M2.87467 0.606689C2.16743 0.606689 1.48915 0.887641 0.989056 1.38774C0.488959 1.88783 0.208008 2.56611 0.208008 3.27336V8.60669C0.915252 8.60669 1.59353 8.88764 2.09363 9.38774C2.59372 9.88784 2.87467 10.5661 2.87467 11.2734C2.87467 11.9806 2.59372 12.6589 2.09363 13.159C1.59353 13.6591 0.915252 13.94 0.208008 13.94V19.2734C0.208008 19.9806 0.488959 20.6589 0.989056 21.159C1.48915 21.6591 2.16743 21.94 2.87467 21.94H24.208C24.9153 21.94 25.5935 21.6591 26.0936 21.159C26.5937 20.6589 26.8747 19.9806 26.8747 19.2734V13.94C26.1674 13.94 25.4892 13.6591 24.9891 13.159C24.489 12.6589 24.208 11.9806 24.208 11.2734C24.208 10.5661 24.489 9.88784 24.9891 9.38774C25.4892 8.88764 26.1674 8.60669 26.8747 8.60669V3.27336C26.8747 2.56611 26.5937 1.88783 26.0936 1.38774C25.5935 0.887641 24.9153 0.606689 24.208 0.606689H2.87467ZM18.208 4.60669L20.208 6.60669L8.87467 17.94L6.87467 15.94L18.208 4.60669ZM9.28801 4.66002C10.5947 4.66002 11.648 5.71336 11.648 7.02002C11.648 7.64593 11.3994 8.24621 10.9568 8.6888C10.5142 9.13138 9.91392 9.38002 9.28801 9.38002C7.98134 9.38002 6.92801 8.32669 6.92801 7.02002C6.92801 6.39411 7.17665 5.79384 7.61924 5.35125C8.06182 4.90867 8.6621 4.66002 9.28801 4.66002ZM17.7947 13.1667C19.1013 13.1667 20.1547 14.22 20.1547 15.5267C20.1547 16.1526 19.906 16.7529 19.4634 17.1955C19.0209 17.638 18.4206 17.8867 17.7947 17.8867C16.488 17.8867 15.4347 16.8334 15.4347 15.5267C15.4347 14.9008 15.6833 14.3005 16.1259 13.8579C16.5685 13.4153 17.1688 13.1667 17.7947 13.1667Z" fill="#235957"/>
</svg>
